<svg width="95" height="17" viewBox="0 0 95 17" fill="none" xmlns="http://www.w3.org/2000/svg">
<path d="M11.7898 6.72424C13.2511 7.0231 14.3436 7.60658 15.0672 8.47468C15.7907 9.32856 16.1667 10.2394 16.1951 11.2071C16.1951 11.2213 16.1951 11.2355 16.1951 11.2498C16.1951 11.264 16.1951 11.2782 16.1951 11.2925C16.1809 12.4594 15.6772 13.5268 14.6841 14.4945C13.7051 15.4622 12.2651 15.9461 10.3639 15.9461L1.51077 15.9674C1.22702 15.9532 1.00711 15.8891 0.851041 15.7753C0.709164 15.6614 0.631131 15.5334 0.616943 15.391C0.616943 15.3768 0.616943 15.3626 0.616943 15.3484C0.616943 15.3484 0.616943 15.3412 0.616943 15.327C0.616943 15.1847 0.694976 15.0495 0.851041 14.9214C1.02129 14.7791 1.26249 14.7079 1.57462 14.7079L1.74487 14.5585V1.45158C1.43274 1.45158 1.18445 1.38754 1.00001 1.25946C0.82976 1.13138 0.730445 0.989069 0.70207 0.832525C0.687882 0.818294 0.680788 0.804063 0.680788 0.789832C0.680788 0.761369 0.680788 0.740022 0.680788 0.725791C0.680788 0.583479 0.744633 0.462514 0.872323 0.362895C1.0142 0.249046 1.21992 0.192121 1.48949 0.192121H10.896C12.4566 0.192121 13.6413 0.540786 14.45 1.23811C15.2587 1.92121 15.6631 2.68258 15.6631 3.52222C15.6631 4.24801 15.3438 4.924 14.7054 5.55017C14.0669 6.16211 13.0951 6.55347 11.7898 6.72424ZM9.64036 13.9181V8.3466C9.64036 8.07621 9.51266 7.87697 9.25729 7.74889C9.01609 7.62081 8.74653 7.55677 8.44858 7.55677C8.15064 7.55677 7.88107 7.62793 7.63988 7.77024C7.39869 7.89832 7.27809 8.09044 7.27809 8.3466C7.27809 8.40353 7.29938 8.45334 7.34194 8.49603C7.3845 8.53872 7.43416 8.58142 7.49091 8.62411C7.49091 8.62411 7.49091 8.63123 7.49091 8.64546C7.5051 8.64546 7.51219 8.64546 7.51219 8.64546C7.58313 8.68815 7.63988 8.73796 7.68245 8.79488C7.7392 8.83758 7.76757 8.8945 7.76757 8.96566V13.2564C7.76757 13.3133 7.7392 13.3702 7.68245 13.4271C7.63988 13.4841 7.59023 13.5339 7.53347 13.5766C7.51929 13.5766 7.5051 13.5837 7.49091 13.5979C7.43416 13.6406 7.3845 13.6833 7.34194 13.726C7.29938 13.7687 7.27809 13.8185 7.27809 13.8754C7.27809 14.1458 7.39869 14.3451 7.63988 14.4731C7.88107 14.587 8.14355 14.6439 8.4273 14.6439C8.44149 14.6439 8.44858 14.6439 8.44858 14.6439C8.46277 14.6439 8.47696 14.6439 8.49115 14.6439C8.7749 14.6297 9.03738 14.5585 9.27857 14.4304C9.51976 14.3024 9.64036 14.1316 9.64036 13.9181ZM9.64036 5.46478V2.26276C9.64036 1.99237 9.51266 1.79313 9.25729 1.66505C9.01609 1.53697 8.74653 1.47293 8.44858 1.47293C8.15064 1.47293 7.88107 1.54409 7.63988 1.6864C7.39869 1.81448 7.27809 2.0066 7.27809 2.26276C7.27809 2.31969 7.29938 2.3695 7.34194 2.41219C7.3845 2.45488 7.43416 2.49758 7.49091 2.54027C7.5051 2.54027 7.51219 2.54027 7.51219 2.54027C7.51219 2.54027 7.51929 2.54739 7.53347 2.56162C7.59023 2.60431 7.63988 2.647 7.68245 2.6897C7.7392 2.73239 7.76757 2.78932 7.76757 2.86047V4.80303C7.76757 4.85996 7.74629 4.90977 7.70373 4.95246C7.66116 4.99515 7.61151 5.03785 7.55475 5.08054C7.55475 5.08054 7.54766 5.08766 7.53347 5.10189C7.46254 5.14458 7.39869 5.19439 7.34194 5.25131C7.29938 5.29401 7.27809 5.35093 7.27809 5.42209C7.27809 5.69248 7.39869 5.89172 7.63988 6.0198C7.88107 6.13365 8.14355 6.19057 8.4273 6.19057C8.44149 6.19057 8.44858 6.19057 8.44858 6.19057C8.46277 6.19057 8.47696 6.19057 8.49115 6.19057C8.7749 6.17634 9.03738 6.10519 9.27857 5.97711C9.51976 5.84903 9.64036 5.67825 9.64036 5.46478Z" fill="white"/>
<path d="M32.703 15.3484C32.703 15.4907 32.6108 15.6187 32.4263 15.7326C32.2561 15.8607 32.0645 15.9318 31.8517 15.9461C31.8375 15.9461 31.8234 15.9461 31.8092 15.9461C31.8092 15.9461 31.8021 15.9461 31.7879 15.9461L25.5311 15.9674C25.5311 15.9532 25.4814 15.9247 25.3821 15.882C25.297 15.8536 25.1977 15.818 25.0842 15.7753C24.9565 15.7184 24.843 15.6472 24.7437 15.5618C24.6585 15.4907 24.616 15.4124 24.616 15.327C24.616 15.1705 24.7011 15.0353 24.8714 14.9214C25.0558 14.7933 25.2757 14.7293 25.5311 14.7293H26.0418L25.5949 12.8294H21.8068L21.3173 14.7293H21.8281C22.0693 14.7293 22.2821 14.7862 22.4665 14.9001C22.651 15.0139 22.7432 15.1562 22.7432 15.327C22.7432 15.4836 22.651 15.6259 22.4665 15.7539C22.2821 15.882 22.0693 15.9461 21.8281 15.9461L18.6146 15.9674C18.572 15.9532 18.5081 15.9318 18.423 15.9034C18.3521 15.8891 18.274 15.8607 18.1889 15.818C18.0612 15.7611 17.9477 15.6899 17.8484 15.6045C17.7491 15.5191 17.6994 15.4266 17.6994 15.327C17.6994 15.1562 17.7917 15.0139 17.9761 14.9001C18.1605 14.7862 18.3734 14.7293 18.6146 14.7293H19.1466L22.5091 1.40889H21.7217C21.4663 1.40889 21.2464 1.35196 21.0619 1.23811C20.8917 1.11003 20.8066 0.960606 20.8066 0.789832C20.8066 0.619057 20.8917 0.476745 21.0619 0.362895C21.2464 0.249046 21.4663 0.192121 21.7217 0.192121H27.489C27.7444 0.192121 27.9572 0.249046 28.1274 0.362895C28.3119 0.476745 28.4041 0.619057 28.4041 0.789832L31.5963 14.7293H31.7879C32.0433 14.7293 32.2561 14.7933 32.4263 14.9214C32.6108 15.0353 32.703 15.1705 32.703 15.327V15.3484ZM25.3183 11.6981L24.0839 6.29731C24.0697 6.21192 24.0272 6.14788 23.9562 6.10519C23.8995 6.06249 23.8356 6.04115 23.7647 6.04115C23.7505 6.04115 23.7363 6.04115 23.7221 6.04115C23.7221 6.04115 23.715 6.04826 23.7009 6.06249C23.6441 6.07672 23.5874 6.10519 23.5306 6.14788C23.488 6.19057 23.4597 6.24038 23.4455 6.29731L22.0835 11.6981H25.3183Z" fill="white"/>
<path d="M47.3792 15.3057C47.3792 15.4195 47.3224 15.5262 47.2089 15.6259C47.0954 15.7255 46.9677 15.8038 46.8258 15.8607C46.7549 15.8891 46.6911 15.9105 46.6343 15.9247C46.5776 15.9389 46.5208 15.9461 46.4641 15.9461C45.7689 15.9461 45.0808 15.9461 44.3997 15.9461C43.7187 15.9461 43.0377 15.9461 42.3567 15.9461C41.8034 15.9461 41.4203 15.7326 41.2075 15.3057C40.9947 14.893 40.867 14.4304 40.8244 13.9181C40.8102 13.7616 40.7961 13.605 40.7819 13.4485C40.7819 13.2919 40.7819 13.1425 40.7819 13.0002C40.7819 12.9148 40.7819 12.8294 40.7819 12.744C40.7819 12.6587 40.789 12.5804 40.8031 12.5092C40.8031 12.4381 40.8031 12.374 40.8031 12.3171C40.8031 12.246 40.8031 12.1819 40.8031 12.125C40.8031 11.5273 40.6116 11.143 40.2285 10.9723C39.8597 10.8015 39.3418 10.7232 38.675 10.7374V14.5585L38.9091 14.6866C39.1503 14.6866 39.3631 14.7506 39.5475 14.8787C39.732 15.0068 39.8242 15.142 39.8242 15.2843C39.8242 15.4693 39.732 15.6259 39.5475 15.7539C39.3631 15.882 39.1503 15.9461 38.9091 15.9461L33.1843 15.9674C32.9148 15.9532 32.6948 15.882 32.5246 15.7539C32.3543 15.6259 32.2692 15.4693 32.2692 15.2843C32.2692 15.142 32.3543 15.0068 32.5246 14.8787C32.6948 14.7506 32.9148 14.6866 33.1843 14.6866L33.3546 14.5585V1.55832C33.2978 1.52985 33.2411 1.50139 33.1843 1.47293C33.1276 1.44447 33.0637 1.42312 32.9928 1.40889C32.9786 1.39466 32.9573 1.38754 32.9289 1.38754C32.9006 1.37331 32.8722 1.3662 32.8438 1.3662C32.6877 1.30927 32.5459 1.25235 32.4182 1.19542C32.3047 1.12427 32.2479 0.989069 32.2479 0.789832C32.2479 0.619057 32.3331 0.476745 32.5033 0.362895C32.6736 0.234815 32.8864 0.170775 33.1418 0.170775H41.0585C42.8036 0.170775 44.1727 0.704445 45.1659 1.77179C46.1732 2.83913 46.7194 4.0132 46.8046 5.29401C46.8188 5.36516 46.8258 5.43632 46.8258 5.50748C46.8258 5.5644 46.8258 5.62844 46.8258 5.6996C46.8258 6.73848 46.4924 7.69908 45.8256 8.58142C45.173 9.46375 44.1373 10.033 42.7185 10.2892V10.4386L43.6336 10.6307C43.7187 10.6449 43.8039 10.6663 43.889 10.6948C43.9883 10.7232 44.0876 10.7588 44.1869 10.8015C44.6693 10.9723 45.1162 11.2213 45.5277 11.5486C45.9391 11.8617 46.1803 12.189 46.2512 12.5306C46.2654 12.559 46.2725 12.5875 46.2725 12.616C46.2725 12.6444 46.2725 12.6729 46.2725 12.7014C46.2725 12.7298 46.2654 12.7796 46.2512 12.8508C46.2512 12.9219 46.2512 13.0073 46.2512 13.1069C46.2512 13.1923 46.2441 13.2848 46.23 13.3844C46.23 13.4698 46.23 13.5623 46.23 13.662C46.23 13.6762 46.23 13.6904 46.23 13.7046C46.23 13.7189 46.23 13.7331 46.23 13.7473C46.23 13.975 46.2441 14.1814 46.2725 14.3664C46.3009 14.5514 46.3647 14.6581 46.4641 14.6866C46.4924 14.7008 46.5137 14.7151 46.5279 14.7293C46.5563 14.7293 46.5847 14.7293 46.613 14.7293C46.8117 14.8005 46.989 14.8787 47.1451 14.9641C47.3011 15.0495 47.3792 15.1562 47.3792 15.2843V15.3057ZM40.6542 8.64546V2.41219C40.6542 2.1418 40.5265 1.94256 40.2711 1.81448C40.0299 1.6864 39.7603 1.62236 39.4624 1.62236C39.1645 1.62236 38.8949 1.69351 38.6537 1.83582C38.4125 1.96391 38.2919 2.15603 38.2919 2.41219C38.2919 2.46911 38.3132 2.51892 38.3558 2.56162C38.3983 2.60431 38.448 2.647 38.5047 2.6897C38.5047 2.6897 38.5047 2.69681 38.5047 2.71104C38.5189 2.71104 38.526 2.71104 38.526 2.71104C38.597 2.75374 38.6537 2.80355 38.6963 2.86047C38.753 2.90317 38.7814 2.96009 38.7814 3.03125V7.96236C38.7814 8.01928 38.753 8.07621 38.6963 8.13313C38.6537 8.19006 38.604 8.23987 38.5473 8.28256C38.4764 8.32526 38.4125 8.37506 38.3558 8.43199C38.3132 8.47468 38.2919 8.53161 38.2919 8.60276C38.2919 8.87316 38.4125 9.07239 38.6537 9.20047C38.8949 9.31432 39.1574 9.37125 39.4411 9.37125C39.4553 9.37125 39.4624 9.37125 39.4624 9.37125C39.4766 9.37125 39.4908 9.37125 39.505 9.37125C39.7887 9.35702 40.0512 9.28586 40.2924 9.15778C40.5336 9.0297 40.6542 8.85892 40.6542 8.64546Z" fill="white"/>
<path d="M60.0891 6.72424C61.5505 7.0231 62.6429 7.60658 63.3665 8.47468C64.0901 9.32856 64.466 10.2394 64.4944 11.2071C64.4944 11.2213 64.4944 11.2355 64.4944 11.2498C64.4944 11.264 64.4944 11.2782 64.4944 11.2925C64.4802 12.4594 63.9766 13.5268 62.9834 14.4945C62.0045 15.4622 60.5644 15.9461 58.6633 15.9461L49.8101 15.9674C49.5263 15.9532 49.3064 15.8891 49.1504 15.7753C49.0085 15.6614 48.9305 15.5334 48.9163 15.391C48.9163 15.3768 48.9163 15.3626 48.9163 15.3484C48.9163 15.3484 48.9163 15.3412 48.9163 15.327C48.9163 15.1847 48.9943 15.0495 49.1504 14.9214C49.3206 14.7791 49.5618 14.7079 49.8739 14.7079L50.0442 14.5585V1.45158C49.7321 1.45158 49.4838 1.38754 49.2993 1.25946C49.1291 1.13138 49.0298 0.989069 49.0014 0.832525C48.9872 0.818294 48.9801 0.804063 48.9801 0.789832C48.9801 0.761369 48.9801 0.740022 48.9801 0.725791C48.9801 0.583479 49.044 0.462514 49.1716 0.362895C49.3135 0.249046 49.5192 0.192121 49.7888 0.192121H59.1953C60.756 0.192121 61.9406 0.540786 62.7493 1.23811C63.558 1.92121 63.9624 2.68258 63.9624 3.52222C63.9624 4.24801 63.6432 4.924 63.0047 5.55017C62.3663 6.16211 61.3944 6.55347 60.0891 6.72424ZM57.9397 13.9181V8.3466C57.9397 8.07621 57.812 7.87697 57.5566 7.74889C57.3154 7.62081 57.0459 7.55677 56.7479 7.55677C56.45 7.55677 56.1804 7.62793 55.9392 7.77024C55.698 7.89832 55.5774 8.09044 55.5774 8.3466C55.5774 8.40353 55.5987 8.45334 55.6413 8.49603C55.6838 8.53872 55.7335 8.58142 55.7902 8.62411C55.7902 8.62411 55.7902 8.63123 55.7902 8.64546C55.8044 8.64546 55.8115 8.64546 55.8115 8.64546C55.8825 8.68815 55.9392 8.73796 55.9818 8.79488C56.0385 8.83758 56.0669 8.8945 56.0669 8.96566V13.2564C56.0669 13.3133 56.0385 13.3702 55.9818 13.4271C55.9392 13.4841 55.8895 13.5339 55.8328 13.5766C55.8186 13.5766 55.8044 13.5837 55.7902 13.5979C55.7335 13.6406 55.6838 13.6833 55.6413 13.726C55.5987 13.7687 55.5774 13.8185 55.5774 13.8754C55.5774 14.1458 55.698 14.3451 55.9392 14.4731C56.1804 14.587 56.4429 14.6439 56.7266 14.6439C56.7408 14.6439 56.7479 14.6439 56.7479 14.6439C56.7621 14.6439 56.7763 14.6439 56.7905 14.6439C57.0742 14.6297 57.3367 14.5585 57.5779 14.4304C57.8191 14.3024 57.9397 14.1316 57.9397 13.9181ZM57.9397 5.46478V2.26276C57.9397 1.99237 57.812 1.79313 57.5566 1.66505C57.3154 1.53697 57.0459 1.47293 56.7479 1.47293C56.45 1.47293 56.1804 1.54409 55.9392 1.6864C55.698 1.81448 55.5774 2.0066 55.5774 2.26276C55.5774 2.31969 55.5987 2.3695 55.6413 2.41219C55.6838 2.45488 55.7335 2.49758 55.7902 2.54027C55.8044 2.54027 55.8115 2.54027 55.8115 2.54027C55.8115 2.54027 55.8186 2.54739 55.8328 2.56162C55.8895 2.60431 55.9392 2.647 55.9818 2.6897C56.0385 2.73239 56.0669 2.78932 56.0669 2.86047V4.80303C56.0669 4.85996 56.0456 4.90977 56.0031 4.95246C55.9605 4.99515 55.9108 5.03785 55.8541 5.08054C55.8541 5.08054 55.847 5.08766 55.8328 5.10189C55.7619 5.14458 55.698 5.19439 55.6413 5.25131C55.5987 5.29401 55.5774 5.35093 55.5774 5.42209C55.5774 5.69248 55.698 5.89172 55.9392 6.0198C56.1804 6.13365 56.4429 6.19057 56.7266 6.19057C56.7408 6.19057 56.7479 6.19057 56.7479 6.19057C56.7621 6.19057 56.7763 6.19057 56.7905 6.19057C57.0742 6.17634 57.3367 6.10519 57.5779 5.97711C57.8191 5.84903 57.9397 5.67825 57.9397 5.46478Z" fill="white"/>
<path d="M77.8952 13.5766L77.4909 15.3484C77.4767 15.3768 77.4625 15.4124 77.4483 15.4551C77.4483 15.512 77.4412 15.5618 77.427 15.6045C77.3702 15.7611 77.278 15.9034 77.1503 16.0315C77.0227 16.1595 76.8382 16.2236 76.597 16.2236C76.4693 16.2236 76.3487 16.2165 76.2352 16.2022C76.1217 16.188 76.0153 16.1666 75.916 16.1382C75.8876 16.124 75.8593 16.1097 75.8309 16.0955C75.8025 16.0955 75.7741 16.0955 75.7458 16.0955C75.6039 16.067 75.4549 16.0386 75.2988 16.0101C75.157 15.9816 74.9796 15.9674 74.7668 15.9674L66.7649 15.9888C66.7649 15.9745 66.7152 15.9461 66.6159 15.9034C66.5308 15.8749 66.4315 15.8322 66.318 15.7753C66.1903 15.7184 66.0768 15.6472 65.9775 15.5618C65.8924 15.4907 65.8498 15.4124 65.8498 15.327C65.8498 15.1705 65.9349 15.0353 66.1052 14.9214C66.2896 14.7933 66.5095 14.7293 66.7649 14.7293L67.0841 14.6226V1.57966L66.7649 1.45158C66.7507 1.45158 66.694 1.43735 66.5947 1.40889C66.5095 1.38043 66.4173 1.33773 66.318 1.28081C66.2045 1.22388 66.0981 1.15984 65.9988 1.08869C65.8995 1.0033 65.8498 0.910797 65.8498 0.811178C65.8498 0.640404 65.9349 0.498092 66.1052 0.384243C66.2896 0.270393 66.5095 0.213468 66.7649 0.213468H73.8304C73.9013 0.213468 73.9794 0.213468 74.0645 0.213468C74.1496 0.199237 74.2348 0.185006 74.3199 0.170775C74.3624 0.156543 74.405 0.149427 74.4476 0.149427C74.5043 0.135196 74.554 0.120965 74.5965 0.106734C74.6817 0.0925029 74.7597 0.0782715 74.8307 0.0640396C74.9016 0.0498086 74.9512 0.0355776 74.9796 0.0213465C74.9938 0.0213465 75.008 0.0213465 75.0222 0.0213465C75.0506 0.00711551 75.0718 0 75.086 0C75.1002 0 75.1144 0 75.1286 0C75.157 0 75.1782 0 75.1924 0C75.2492 0 75.3059 0.00711551 75.3627 0.0213465C75.4194 0.0213465 75.4833 0.028462 75.5542 0.0426931C75.7245 0.099618 75.8876 0.185005 76.0437 0.298855C76.214 0.412705 76.3345 0.547902 76.4055 0.704444L77.3632 2.56162C77.3915 2.60431 77.4128 2.647 77.427 2.6897C77.4412 2.73239 77.4412 2.77508 77.427 2.81778C77.427 2.93163 77.3773 3.04548 77.278 3.15933C77.1929 3.25895 77.0723 3.3301 76.9162 3.3728C76.8879 3.38703 76.8524 3.40126 76.8098 3.41549C76.7815 3.41549 76.7531 3.41549 76.7247 3.41549C76.6822 3.42972 76.6396 3.43684 76.597 3.43684C76.5686 3.43684 76.5403 3.43684 76.5119 3.43684C76.3275 3.43684 76.1572 3.40837 76.0011 3.35145C75.8451 3.28029 75.7387 3.19491 75.6819 3.09529L74.6604 1.45158H73.1281L72.9366 1.62236V6.48943H74.5753C74.5611 6.46097 74.554 6.43962 74.554 6.42539C74.554 6.39693 74.554 6.37558 74.554 6.36135C74.554 6.33289 74.554 6.31154 74.554 6.29731C74.5682 6.26885 74.5753 6.24038 74.5753 6.21192C74.6036 6.12653 74.6533 6.04826 74.7242 5.97711C74.8094 5.89172 74.8945 5.82768 74.9796 5.78499C75.0364 5.75652 75.086 5.74229 75.1286 5.74229C75.1853 5.72806 75.2421 5.72094 75.2988 5.72094C75.3272 5.72094 75.3556 5.72094 75.384 5.72094C75.4123 5.72094 75.4407 5.72806 75.4691 5.74229C75.5826 5.75652 75.689 5.78499 75.7883 5.82768C75.8876 5.85614 75.9728 5.89883 76.0437 5.95576C76.1004 5.98422 76.143 6.01268 76.1714 6.04115C76.1998 6.05538 76.221 6.07673 76.2352 6.10519L77.6398 8.3466C77.654 8.36083 77.6611 8.38218 77.6611 8.41064C77.6753 8.42487 77.6824 8.4391 77.6824 8.45334C77.6966 8.46757 77.7037 8.48891 77.7037 8.51738C77.7037 8.53161 77.7037 8.54584 77.7037 8.56007C77.7037 8.67392 77.654 8.78777 77.5547 8.90162C77.4696 9.00124 77.3348 9.07951 77.1503 9.13643C77.122 9.15066 77.0865 9.1649 77.0439 9.17913C77.0156 9.17913 76.9872 9.17913 76.9588 9.17913C76.9162 9.19336 76.8737 9.20047 76.8311 9.20047C76.8027 9.20047 76.7744 9.20047 76.746 9.20047C76.5615 9.20047 76.3913 9.1649 76.2352 9.09374C76.0934 9.02258 75.9869 8.9372 75.916 8.83758L75.4265 8.11179C75.3414 7.94101 75.1924 7.83428 74.9796 7.79158C74.781 7.74889 74.476 7.72754 74.0645 7.72754H72.9366V14.7293H74.5327C74.7739 14.7293 74.9654 14.6866 75.1073 14.6012C75.2492 14.5158 75.3556 14.4162 75.4265 14.3024C75.4407 14.2881 75.4478 14.2739 75.4478 14.2597C75.462 14.2454 75.4762 14.2312 75.4904 14.217L76.214 13.0642C76.2849 12.9504 76.3984 12.865 76.5545 12.8081C76.7105 12.7512 76.8808 12.7227 77.0652 12.7227C77.1362 12.7227 77.2 12.7227 77.2568 12.7227C77.3277 12.7227 77.3915 12.7369 77.4483 12.7654C77.6185 12.8223 77.7391 12.9077 77.8101 13.0216C77.881 13.1354 77.9165 13.2564 77.9165 13.3844C77.9165 13.4129 77.9165 13.4485 77.9165 13.4912C77.9165 13.5196 77.9094 13.5481 77.8952 13.5766Z" fill="white"/>
<path d="M94.4315 15.3057C94.4315 15.4195 94.3748 15.5262 94.2613 15.6259C94.1478 15.7255 94.0201 15.8038 93.8782 15.8607C93.8073 15.8891 93.7434 15.9105 93.6867 15.9247C93.6299 15.9389 93.5732 15.9461 93.5164 15.9461C92.8212 15.9461 92.1331 15.9461 91.4521 15.9461C90.7711 15.9461 90.0901 15.9461 89.4091 15.9461C88.8557 15.9461 88.4727 15.7326 88.2599 15.3057C88.047 14.893 87.9193 14.4304 87.8768 13.9181C87.8626 13.7616 87.8484 13.605 87.8342 13.4485C87.8342 13.2919 87.8342 13.1425 87.8342 13.0002C87.8342 12.9148 87.8342 12.8294 87.8342 12.744C87.8342 12.6587 87.8413 12.5804 87.8555 12.5092C87.8555 12.4381 87.8555 12.374 87.8555 12.3171C87.8555 12.246 87.8555 12.1819 87.8555 12.125C87.8555 11.5273 87.664 11.143 87.2809 10.9723C86.912 10.8015 86.3942 10.7232 85.7273 10.7374V14.5585L85.9614 14.6866C86.2026 14.6866 86.4154 14.7506 86.5999 14.8787C86.7843 15.0068 86.8765 15.142 86.8765 15.2843C86.8765 15.4693 86.7843 15.6259 86.5999 15.7539C86.4154 15.882 86.2026 15.9461 85.9614 15.9461L80.2367 15.9674C79.9671 15.9532 79.7472 15.882 79.577 15.7539C79.4067 15.6259 79.3216 15.4693 79.3216 15.2843C79.3216 15.142 79.4067 15.0068 79.577 14.8787C79.7472 14.7506 79.9671 14.6866 80.2367 14.6866L80.4069 14.5585V1.55832C80.3502 1.52985 80.2934 1.50139 80.2367 1.47293C80.1799 1.44447 80.1161 1.42312 80.0451 1.40889C80.031 1.39466 80.0097 1.38754 79.9813 1.38754C79.9529 1.37331 79.9245 1.3662 79.8962 1.3662C79.7401 1.30927 79.5982 1.25235 79.4705 1.19542C79.357 1.12427 79.3003 0.989069 79.3003 0.789832C79.3003 0.619057 79.3854 0.476745 79.5557 0.362895C79.7259 0.234815 79.9387 0.170775 80.1941 0.170775H88.1109C89.856 0.170775 91.2251 0.704445 92.2182 1.77179C93.2256 2.83913 93.7718 4.0132 93.8569 5.29401C93.8711 5.36516 93.8782 5.43632 93.8782 5.50748C93.8782 5.5644 93.8782 5.62844 93.8782 5.6996C93.8782 6.73848 93.5448 7.69908 92.878 8.58142C92.2253 9.46375 91.1896 10.033 89.7708 10.2892V10.4386L90.686 10.6307C90.7711 10.6449 90.8562 10.6663 90.9413 10.6948C91.0406 10.7232 91.14 10.7588 91.2393 10.8015C91.7217 10.9723 92.1686 11.2213 92.58 11.5486C92.9915 11.8617 93.2327 12.189 93.3036 12.5306C93.3178 12.559 93.3249 12.5875 93.3249 12.616C93.3249 12.6444 93.3249 12.6729 93.3249 12.7014C93.3249 12.7298 93.3178 12.7796 93.3036 12.8508C93.3036 12.9219 93.3036 13.0073 93.3036 13.1069C93.3036 13.1923 93.2965 13.2848 93.2823 13.3844C93.2823 13.4698 93.2823 13.5623 93.2823 13.662C93.2823 13.6762 93.2823 13.6904 93.2823 13.7046C93.2823 13.7189 93.2823 13.7331 93.2823 13.7473C93.2823 13.975 93.2965 14.1814 93.3249 14.3664C93.3533 14.5514 93.4171 14.6581 93.5164 14.6866C93.5448 14.7008 93.5661 14.7151 93.5803 14.7293C93.6086 14.7293 93.637 14.7293 93.6654 14.7293C93.864 14.8005 94.0414 14.8787 94.1974 14.9641C94.3535 15.0495 94.4315 15.1562 94.4315 15.2843V15.3057ZM87.7065 8.64546V2.41219C87.7065 2.1418 87.5788 1.94256 87.3235 1.81448C87.0823 1.6864 86.8127 1.62236 86.5148 1.62236C86.2168 1.62236 85.9472 1.69351 85.7061 1.83582C85.4649 1.96391 85.3443 2.15603 85.3443 2.41219C85.3443 2.46911 85.3655 2.51892 85.4081 2.56162C85.4507 2.60431 85.5003 2.647 85.5571 2.6897C85.5571 2.6897 85.5571 2.69681 85.5571 2.71104C85.5713 2.71104 85.5784 2.71104 85.5784 2.71104C85.6493 2.75374 85.7061 2.80355 85.7486 2.86047C85.8054 2.90317 85.8337 2.96009 85.8337 3.03125V7.96236C85.8337 8.01928 85.8054 8.07621 85.7486 8.13313C85.7061 8.19006 85.6564 8.23987 85.5996 8.28256C85.5287 8.32526 85.4649 8.37506 85.4081 8.43199C85.3655 8.47468 85.3443 8.53161 85.3443 8.60276C85.3443 8.87316 85.4649 9.07239 85.7061 9.20047C85.9472 9.31432 86.2097 9.37125 86.4935 9.37125C86.5077 9.37125 86.5148 9.37125 86.5148 9.37125C86.5289 9.37125 86.5431 9.37125 86.5573 9.37125C86.8411 9.35702 87.1036 9.28586 87.3447 9.15778C87.5859 9.0297 87.7065 8.85892 87.7065 8.64546Z" fill="white"/>
</svg>
