<svg width="67" height="12" viewBox="0 0 67 12" fill="none" xmlns="http://www.w3.org/2000/svg">
<path d="M8.18602 4.73667C9.21541 4.94719 9.98495 5.3582 10.4946 5.96971C11.0043 6.57119 11.2692 7.21277 11.2892 7.89445C11.2892 7.90447 11.2892 7.9145 11.2892 7.92452C11.2892 7.93455 11.2892 7.94457 11.2892 7.95459C11.2792 8.77662 10.9244 9.52847 10.2248 10.2101C9.53522 10.8918 8.52082 11.2327 7.18161 11.2327L0.945301 11.2477C0.74542 11.2377 0.590511 11.1926 0.480576 11.1124C0.380635 11.0322 0.325668 10.942 0.315674 10.8417C0.315674 10.8317 0.315674 10.8217 0.315674 10.8116C0.315674 10.8116 0.315674 10.8066 0.315674 10.7966C0.315674 10.6963 0.370641 10.6011 0.480576 10.5109C0.600505 10.4106 0.770405 10.3605 0.990275 10.3605L1.1102 10.2553V1.02252C0.890334 1.02252 0.715437 0.977408 0.585514 0.887186C0.465585 0.796963 0.395627 0.696716 0.375638 0.586444C0.365644 0.57642 0.360647 0.566395 0.360647 0.55637C0.360647 0.536321 0.360647 0.521284 0.360647 0.511259C0.360647 0.411012 0.405621 0.325802 0.495567 0.255629C0.595508 0.175432 0.740422 0.135333 0.93031 0.135333H7.55639C8.65574 0.135333 9.49024 0.380938 10.0599 0.872148C10.6296 1.35333 10.9144 1.88965 10.9144 2.48111C10.9144 2.99237 10.6895 3.46854 10.2398 3.90963C9.79007 4.34069 9.10547 4.61637 8.18602 4.73667ZM6.67191 9.80415V5.87948C6.67191 5.68901 6.58196 5.54867 6.40207 5.45845C6.23217 5.36822 6.04228 5.32311 5.83241 5.32311C5.62253 5.32311 5.43265 5.37324 5.26275 5.47348C5.09285 5.5637 5.0079 5.69904 5.0079 5.87948C5.0079 5.91958 5.02289 5.95467 5.05287 5.98474C5.08285 6.01482 5.11783 6.04489 5.15781 6.07497C5.15781 6.07497 5.15781 6.07998 5.15781 6.09C5.1678 6.09 5.1728 6.09 5.1728 6.09C5.22277 6.12007 5.26275 6.15516 5.29273 6.19526C5.33271 6.22533 5.35269 6.26543 5.35269 6.31556V9.338C5.35269 9.3781 5.33271 9.4182 5.29273 9.4583C5.26275 9.4984 5.22777 9.53348 5.18779 9.56356C5.1778 9.56356 5.1678 9.56857 5.15781 9.5786C5.11783 9.60867 5.08285 9.63874 5.05287 9.66882C5.02289 9.69889 5.0079 9.73398 5.0079 9.77408C5.0079 9.96455 5.09285 10.1049 5.26275 10.1951C5.43265 10.2753 5.61754 10.3154 5.81742 10.3154C5.82741 10.3154 5.83241 10.3154 5.83241 10.3154C5.8424 10.3154 5.8524 10.3154 5.86239 10.3154C6.06227 10.3054 6.24716 10.2553 6.41706 10.165C6.58696 10.0748 6.67191 9.95452 6.67191 9.80415ZM6.67191 3.84948V1.59393C6.67191 1.40346 6.58196 1.26311 6.40207 1.17289C6.23217 1.08267 6.04228 1.03756 5.83241 1.03756C5.62253 1.03756 5.43265 1.08768 5.26275 1.18793C5.09285 1.27815 5.0079 1.41348 5.0079 1.59393C5.0079 1.63403 5.02289 1.66911 5.05287 1.69919C5.08285 1.72926 5.11783 1.75933 5.15781 1.78941C5.1678 1.78941 5.1728 1.78941 5.1728 1.78941C5.1728 1.78941 5.1778 1.79442 5.18779 1.80444C5.22777 1.83452 5.26275 1.86459 5.29273 1.89467C5.33271 1.92474 5.35269 1.96484 5.35269 2.01496V3.38333C5.35269 3.42343 5.3377 3.45852 5.30772 3.48859C5.27774 3.51867 5.24276 3.54874 5.20278 3.57882C5.20278 3.57882 5.19778 3.58383 5.18779 3.59385C5.13782 3.62393 5.09285 3.65901 5.05287 3.69911C5.02289 3.72919 5.0079 3.76928 5.0079 3.81941C5.0079 4.00988 5.09285 4.15022 5.26275 4.24045C5.43265 4.32064 5.61754 4.36074 5.81742 4.36074C5.82741 4.36074 5.83241 4.36074 5.83241 4.36074C5.8424 4.36074 5.8524 4.36074 5.86239 4.36074C6.06227 4.35072 6.24716 4.30059 6.41706 4.21037C6.58696 4.12015 6.67191 3.99985 6.67191 3.84948Z" fill="white"/>
<path d="M22.9176 10.8116C22.9176 10.9119 22.8526 11.0021 22.7227 11.0823C22.6028 11.1725 22.4679 11.2226 22.318 11.2327C22.308 11.2327 22.298 11.2327 22.288 11.2327C22.288 11.2327 22.283 11.2327 22.273 11.2327L17.8656 11.2477C17.8656 11.2377 17.8306 11.2176 17.7607 11.1876C17.7007 11.1675 17.6307 11.1424 17.5508 11.1124C17.4608 11.0723 17.3809 11.0222 17.3109 10.962C17.251 10.9119 17.221 10.8567 17.221 10.7966C17.221 10.6863 17.2809 10.5911 17.4009 10.5109C17.5308 10.4207 17.6857 10.3756 17.8656 10.3756H18.2254L17.9106 9.03726H15.2422L14.8974 10.3756H15.2571C15.427 10.3756 15.577 10.4157 15.7069 10.4959C15.8368 10.5761 15.9018 10.6763 15.9018 10.7966C15.9018 10.9069 15.8368 11.0071 15.7069 11.0973C15.577 11.1876 15.427 11.2327 15.2571 11.2327L12.9935 11.2477C12.9635 11.2377 12.9185 11.2226 12.8586 11.2026C12.8086 11.1926 12.7536 11.1725 12.6937 11.1424C12.6037 11.1023 12.5238 11.0522 12.4538 10.9921C12.3838 10.9319 12.3489 10.8668 12.3489 10.7966C12.3489 10.6763 12.4138 10.5761 12.5437 10.4959C12.6737 10.4157 12.8236 10.3756 12.9935 10.3756H13.3683L15.7369 0.992444H15.1822C15.0023 0.992444 14.8474 0.952346 14.7175 0.872148C14.5975 0.781926 14.5376 0.676666 14.5376 0.55637C14.5376 0.436074 14.5975 0.335827 14.7175 0.255629C14.8474 0.175432 15.0023 0.135333 15.1822 0.135333H19.2448C19.4247 0.135333 19.5746 0.175432 19.6945 0.255629C19.8244 0.335827 19.8894 0.436074 19.8894 0.55637L22.1381 10.3756H22.273C22.4529 10.3756 22.6028 10.4207 22.7227 10.5109C22.8526 10.5911 22.9176 10.6863 22.9176 10.7966V10.8116ZM17.7157 8.2403L16.8462 4.43593C16.8362 4.37578 16.8062 4.33067 16.7563 4.30059C16.7163 4.27052 16.6713 4.25548 16.6213 4.25548C16.6113 4.25548 16.6013 4.25548 16.5914 4.25548C16.5914 4.25548 16.5864 4.26049 16.5764 4.27052C16.5364 4.28054 16.4964 4.30059 16.4564 4.33067C16.4265 4.36074 16.4065 4.39583 16.3965 4.43593L15.437 8.2403H17.7157Z" fill="white"/>
<path d="M33.2557 10.7816C33.2557 10.8618 33.2158 10.9369 33.1358 11.0071C33.0559 11.0773 32.9659 11.1324 32.866 11.1725C32.816 11.1926 32.771 11.2076 32.7311 11.2176C32.6911 11.2277 32.6511 11.2327 32.6111 11.2327C32.1214 11.2327 31.6367 11.2327 31.157 11.2327C30.6773 11.2327 30.1976 11.2327 29.7178 11.2327C29.3281 11.2327 29.0582 11.0823 28.9083 10.7816C28.7584 10.4908 28.6685 10.165 28.6385 9.80415C28.6285 9.69388 28.6185 9.58361 28.6085 9.47334C28.6085 9.36306 28.6085 9.2578 28.6085 9.15756C28.6085 9.09741 28.6085 9.03726 28.6085 8.97711C28.6085 8.91696 28.6135 8.86183 28.6235 8.8117C28.6235 8.76158 28.6235 8.71647 28.6235 8.67637C28.6235 8.62625 28.6235 8.58114 28.6235 8.54104C28.6235 8.12 28.4886 7.84934 28.2187 7.72904C27.9589 7.60874 27.5941 7.55361 27.1244 7.56363V10.2553L27.2893 10.3455C27.4592 10.3455 27.6091 10.3906 27.739 10.4808C27.8689 10.571 27.9339 10.6663 27.9339 10.7665C27.9339 10.8968 27.8689 11.0071 27.739 11.0973C27.6091 11.1876 27.4592 11.2327 27.2893 11.2327L23.2567 11.2477C23.0668 11.2377 22.9119 11.1876 22.7919 11.0973C22.672 11.0071 22.612 10.8968 22.612 10.7665C22.612 10.6663 22.672 10.571 22.7919 10.4808C22.9119 10.3906 23.0668 10.3455 23.2567 10.3455L23.3766 10.2553V1.0977C23.3366 1.07765 23.2966 1.05761 23.2567 1.03756C23.2167 1.01751 23.1717 1.00247 23.1217 0.992444C23.1118 0.98242 23.0968 0.977408 23.0768 0.977408C23.0568 0.967383 23.0368 0.962371 23.0168 0.962371C22.9069 0.922272 22.8069 0.882173 22.717 0.842074C22.637 0.791951 22.5971 0.696716 22.5971 0.55637C22.5971 0.436074 22.657 0.335827 22.777 0.255629C22.8969 0.165407 23.0468 0.120297 23.2267 0.120297H28.8034C30.0327 0.120297 30.9971 0.496223 31.6967 1.24807C32.4063 1.99993 32.791 2.82696 32.851 3.72919C32.861 3.77931 32.866 3.82943 32.866 3.87956C32.866 3.91966 32.866 3.96477 32.866 4.01489C32.866 4.74669 32.6311 5.42336 32.1614 6.04489C31.7017 6.66642 30.9721 7.06741 29.9727 7.24785V7.35311L30.6173 7.48845C30.6773 7.49847 30.7372 7.51351 30.7972 7.53356C30.8672 7.55361 30.9371 7.57867 31.0071 7.60874C31.3469 7.72904 31.6617 7.90447 31.9515 8.13504C32.2414 8.35558 32.4112 8.58615 32.4612 8.82674C32.4712 8.84679 32.4762 8.86684 32.4762 8.88689C32.4762 8.90694 32.4762 8.92699 32.4762 8.94704C32.4762 8.96709 32.4712 9.00217 32.4612 9.0523C32.4612 9.10242 32.4612 9.16257 32.4612 9.23274C32.4612 9.29289 32.4562 9.35805 32.4462 9.42822C32.4462 9.48837 32.4462 9.55353 32.4462 9.62371C32.4462 9.63373 32.4462 9.64375 32.4462 9.65378C32.4462 9.6638 32.4462 9.67383 32.4462 9.68385C32.4462 9.84425 32.4562 9.98961 32.4762 10.1199C32.4962 10.2502 32.5412 10.3254 32.6111 10.3455C32.6311 10.3555 32.6461 10.3655 32.6561 10.3756C32.6761 10.3756 32.6961 10.3756 32.7161 10.3756C32.856 10.4257 32.9809 10.4808 33.0908 10.541C33.2008 10.6011 33.2557 10.6763 33.2557 10.7665V10.7816ZM28.5186 6.09V1.69919C28.5186 1.50872 28.4286 1.36837 28.2487 1.27815C28.0788 1.18793 27.8889 1.14281 27.6791 1.14281C27.4692 1.14281 27.2793 1.19294 27.1094 1.29318C26.9395 1.38341 26.8545 1.51874 26.8545 1.69919C26.8545 1.73928 26.8695 1.77437 26.8995 1.80444C26.9295 1.83452 26.9645 1.86459 27.0044 1.89467C27.0044 1.89467 27.0044 1.89968 27.0044 1.9097C27.0144 1.9097 27.0194 1.9097 27.0194 1.9097C27.0694 1.93978 27.1094 1.97486 27.1394 2.01496C27.1793 2.04504 27.1993 2.08514 27.1993 2.13526V5.60882C27.1993 5.64891 27.1793 5.68901 27.1394 5.72911C27.1094 5.76921 27.0744 5.8043 27.0344 5.83437C26.9845 5.86445 26.9395 5.89953 26.8995 5.93963C26.8695 5.9697 26.8545 6.0098 26.8545 6.05993C26.8545 6.2504 26.9395 6.39074 27.1094 6.48096C27.2793 6.56116 27.4642 6.60126 27.6641 6.60126C27.6741 6.60126 27.6791 6.60126 27.6791 6.60126C27.689 6.60126 27.699 6.60126 27.709 6.60126C27.9089 6.59124 28.0938 6.54111 28.2637 6.45089C28.4336 6.36067 28.5186 6.24037 28.5186 6.09Z" fill="white"/>
<path d="M42.2088 4.73667C43.2382 4.94719 44.0078 5.3582 44.5175 5.96971C45.0272 6.57119 45.292 7.21277 45.312 7.89445C45.312 7.90447 45.312 7.9145 45.312 7.92452C45.312 7.93455 45.312 7.94457 45.312 7.95459C45.302 8.77662 44.9472 9.52847 44.2476 10.2101C43.558 10.8918 42.5436 11.2327 41.2044 11.2327L34.9681 11.2477C34.7683 11.2377 34.6133 11.1926 34.5034 11.1124C34.4035 11.0322 34.3485 10.942 34.3385 10.8417C34.3385 10.8317 34.3385 10.8217 34.3385 10.8116C34.3385 10.8116 34.3385 10.8066 34.3385 10.7966C34.3385 10.6963 34.3935 10.6011 34.5034 10.5109C34.6233 10.4106 34.7932 10.3605 35.0131 10.3605L35.133 10.2553V1.02252C34.9132 1.02252 34.7383 0.977408 34.6083 0.887186C34.4884 0.796963 34.4185 0.696716 34.3985 0.586444C34.3885 0.57642 34.3835 0.566395 34.3835 0.55637C34.3835 0.536321 34.3835 0.521284 34.3835 0.511259C34.3835 0.411012 34.4285 0.325802 34.5184 0.255629C34.6183 0.175432 34.7633 0.135333 34.9531 0.135333H41.5792C42.6786 0.135333 43.5131 0.380938 44.0827 0.872148C44.6524 1.35333 44.9372 1.88965 44.9372 2.48111C44.9372 2.99237 44.7124 3.46854 44.2626 3.90963C43.8129 4.34069 43.1283 4.61637 42.2088 4.73667ZM40.6947 9.80415V5.87948C40.6947 5.68901 40.6048 5.54867 40.4249 5.45845C40.255 5.36822 40.0651 5.32311 39.8552 5.32311C39.6454 5.32311 39.4555 5.37324 39.2856 5.47348C39.1157 5.5637 39.0307 5.69904 39.0307 5.87948C39.0307 5.91958 39.0457 5.95467 39.0757 5.98474C39.1057 6.01482 39.1407 6.04489 39.1806 6.07497C39.1806 6.07497 39.1806 6.07998 39.1806 6.09C39.1906 6.09 39.1956 6.09 39.1956 6.09C39.2456 6.12007 39.2856 6.15516 39.3156 6.19526C39.3555 6.22533 39.3755 6.26543 39.3755 6.31556V9.338C39.3755 9.3781 39.3555 9.4182 39.3156 9.4583C39.2856 9.4984 39.2506 9.53348 39.2106 9.56356C39.2006 9.56356 39.1906 9.56857 39.1806 9.5786C39.1407 9.60867 39.1057 9.63874 39.0757 9.66882C39.0457 9.69889 39.0307 9.73398 39.0307 9.77408C39.0307 9.96455 39.1157 10.1049 39.2856 10.1951C39.4555 10.2753 39.6404 10.3154 39.8403 10.3154C39.8502 10.3154 39.8552 10.3154 39.8552 10.3154C39.8652 10.3154 39.8752 10.3154 39.8852 10.3154C40.0851 10.3054 40.27 10.2553 40.4399 10.165C40.6098 10.0748 40.6947 9.95452 40.6947 9.80415ZM40.6947 3.84948V1.59393C40.6947 1.40346 40.6048 1.26311 40.4249 1.17289C40.255 1.08267 40.0651 1.03756 39.8552 1.03756C39.6454 1.03756 39.4555 1.08768 39.2856 1.18793C39.1157 1.27815 39.0307 1.41348 39.0307 1.59393C39.0307 1.63403 39.0457 1.66911 39.0757 1.69919C39.1057 1.72926 39.1407 1.75933 39.1806 1.78941C39.1906 1.78941 39.1956 1.78941 39.1956 1.78941C39.1956 1.78941 39.2006 1.79442 39.2106 1.80444C39.2506 1.83452 39.2856 1.86459 39.3156 1.89467C39.3555 1.92474 39.3755 1.96484 39.3755 2.01496V3.38333C39.3755 3.42343 39.3605 3.45852 39.3306 3.48859C39.3006 3.51867 39.2656 3.54874 39.2256 3.57882C39.2256 3.57882 39.2206 3.58383 39.2106 3.59385C39.1607 3.62393 39.1157 3.65901 39.0757 3.69911C39.0457 3.72919 39.0307 3.76928 39.0307 3.81941C39.0307 4.00988 39.1157 4.15022 39.2856 4.24045C39.4555 4.32064 39.6404 4.36074 39.8403 4.36074C39.8502 4.36074 39.8552 4.36074 39.8552 4.36074C39.8652 4.36074 39.8752 4.36074 39.8852 4.36074C40.0851 4.35072 40.27 4.30059 40.4399 4.21037C40.6098 4.12015 40.6947 3.99985 40.6947 3.84948Z" fill="white"/>
<path d="M54.7517 9.56356L54.4669 10.8116C54.4569 10.8317 54.4469 10.8567 54.4369 10.8868C54.4369 10.9269 54.4319 10.962 54.4219 10.9921C54.382 11.1023 54.317 11.2026 54.2271 11.2928C54.1371 11.383 54.0072 11.4282 53.8373 11.4282C53.7473 11.4282 53.6624 11.4231 53.5824 11.4131C53.5025 11.4031 53.4275 11.3881 53.3576 11.368C53.3376 11.358 53.3176 11.348 53.2976 11.3379C53.2776 11.3379 53.2576 11.3379 53.2376 11.3379C53.1377 11.3179 53.0328 11.2978 52.9228 11.2778C52.8229 11.2577 52.698 11.2477 52.548 11.2477L46.9114 11.2627C46.9114 11.2527 46.8764 11.2327 46.8064 11.2026C46.7465 11.1825 46.6765 11.1525 46.5966 11.1124C46.5066 11.0723 46.4267 11.0222 46.3567 10.962C46.2967 10.9119 46.2668 10.8567 46.2668 10.7966C46.2668 10.6863 46.3267 10.5911 46.4467 10.5109C46.5766 10.4207 46.7315 10.3756 46.9114 10.3756L47.1362 10.3004V1.11274L46.9114 1.02252C46.9014 1.02252 46.8614 1.01249 46.7915 0.992444C46.7315 0.972395 46.6665 0.942321 46.5966 0.902222C46.5166 0.862124 46.4417 0.817012 46.3717 0.766889C46.3017 0.706741 46.2668 0.64158 46.2668 0.571407C46.2668 0.451111 46.3267 0.350864 46.4467 0.270667C46.5766 0.190469 46.7315 0.15037 46.9114 0.15037H51.8884C51.9384 0.15037 51.9934 0.15037 52.0533 0.15037C52.1133 0.140346 52.1733 0.130321 52.2332 0.120297C52.2632 0.110271 52.2932 0.105259 52.3232 0.105259C52.3632 0.0952343 52.3981 0.0852097 52.4281 0.0751851C52.4881 0.0651606 52.543 0.0551357 52.593 0.0451105C52.643 0.035086 52.678 0.0250614 52.698 0.0150368C52.708 0.0150368 52.7179 0.0150368 52.7279 0.0150368C52.7479 0.00501228 52.7629 0 52.7729 0C52.7829 0 52.7929 0 52.8029 0C52.8229 0 52.8379 0 52.8479 0C52.8878 0 52.9278 0.00501228 52.9678 0.0150368C53.0078 0.0150368 53.0527 0.0200491 53.1027 0.0300737C53.2226 0.0701725 53.3376 0.130321 53.4475 0.210519C53.5674 0.290716 53.6524 0.385951 53.7024 0.496222L54.377 1.80444C54.3969 1.83452 54.4119 1.86459 54.4219 1.89467C54.4319 1.92474 54.4319 1.95482 54.4219 1.98489C54.4219 2.06509 54.387 2.14528 54.317 2.22548C54.257 2.29565 54.1721 2.34578 54.0621 2.37585C54.0422 2.38588 54.0172 2.3959 53.9872 2.40593C53.9672 2.40593 53.9472 2.40593 53.9272 2.40593C53.8972 2.41595 53.8673 2.42096 53.8373 2.42096C53.8173 2.42096 53.7973 2.42096 53.7773 2.42096C53.6474 2.42096 53.5275 2.40091 53.4175 2.36082C53.3076 2.31069 53.2326 2.25054 53.1927 2.18037L52.4731 1.02252H51.3937L51.2588 1.14281V4.57126H52.4131C52.4031 4.55121 52.3981 4.53617 52.3981 4.52615C52.3981 4.5061 52.3981 4.49106 52.3981 4.48104C52.3981 4.46099 52.3981 4.44595 52.3981 4.43593C52.4081 4.41588 52.4131 4.39583 52.4131 4.37578C52.4331 4.31563 52.4681 4.26049 52.5181 4.21037C52.578 4.15022 52.638 4.10511 52.698 4.07504C52.7379 4.05499 52.7729 4.04496 52.8029 4.04496C52.8429 4.03494 52.8828 4.02993 52.9228 4.02993C52.9428 4.02993 52.9628 4.02993 52.9828 4.02993C53.0028 4.02993 53.0228 4.03494 53.0428 4.04496C53.1227 4.05499 53.1977 4.07504 53.2676 4.10511C53.3376 4.12516 53.3975 4.15524 53.4475 4.19533C53.4875 4.21538 53.5175 4.23543 53.5375 4.25548C53.5574 4.26551 53.5724 4.28054 53.5824 4.30059L54.5718 5.87948C54.5818 5.88951 54.5868 5.90454 54.5868 5.92459C54.5968 5.93462 54.6018 5.94464 54.6018 5.95467C54.6118 5.96469 54.6168 5.97973 54.6168 5.99978C54.6168 6.0098 54.6168 6.01983 54.6168 6.02985C54.6168 6.11005 54.5818 6.19025 54.5119 6.27045C54.4519 6.34062 54.357 6.39575 54.2271 6.43585C54.2071 6.44588 54.1821 6.4559 54.1521 6.46593C54.1321 6.46593 54.1121 6.46593 54.0921 6.46593C54.0621 6.47595 54.0322 6.48096 54.0022 6.48096C53.9822 6.48096 53.9622 6.48096 53.9422 6.48096C53.8123 6.48096 53.6924 6.4559 53.5824 6.40578C53.4825 6.35566 53.4075 6.29551 53.3576 6.22534L53.0128 5.71407C52.9528 5.59378 52.8479 5.51859 52.698 5.48852C52.558 5.45845 52.3432 5.44341 52.0533 5.44341H51.2588V10.3756H52.3831C52.553 10.3756 52.688 10.3455 52.7879 10.2853C52.8878 10.2252 52.9628 10.155 53.0128 10.0748C53.0228 10.0648 53.0278 10.0548 53.0278 10.0447C53.0378 10.0347 53.0477 10.0247 53.0577 10.0147L53.5674 9.20267C53.6174 9.12247 53.6974 9.06232 53.8073 9.02222C53.9172 8.98213 54.0372 8.96208 54.1671 8.96208C54.2171 8.96208 54.262 8.96208 54.302 8.96208C54.352 8.96208 54.3969 8.9721 54.4369 8.99215C54.5569 9.03225 54.6418 9.0924 54.6918 9.17259C54.7417 9.25279 54.7667 9.338 54.7667 9.42822C54.7667 9.44827 54.7667 9.47334 54.7667 9.50341C54.7667 9.52346 54.7617 9.54351 54.7517 9.56356Z" fill="white"/>
<path d="M66.4002 10.7816C66.4002 10.8618 66.3602 10.9369 66.2803 11.0071C66.2003 11.0773 66.1104 11.1324 66.0104 11.1725C65.9605 11.1926 65.9155 11.2076 65.8755 11.2176C65.8355 11.2277 65.7956 11.2327 65.7556 11.2327C65.2659 11.2327 64.7812 11.2327 64.3014 11.2327C63.8217 11.2327 63.342 11.2327 62.8623 11.2327C62.4725 11.2327 62.2027 11.0823 62.0528 10.7816C61.9029 10.4908 61.8129 10.165 61.7829 9.80415C61.7729 9.69388 61.7629 9.58361 61.7529 9.47334C61.7529 9.36306 61.7529 9.2578 61.7529 9.15756C61.7529 9.09741 61.7529 9.03726 61.7529 8.97711C61.7529 8.91696 61.7579 8.86183 61.7679 8.8117C61.7679 8.76158 61.7679 8.71647 61.7679 8.67637C61.7679 8.62625 61.7679 8.58114 61.7679 8.54104C61.7679 8.12 61.633 7.84934 61.3632 7.72904C61.1033 7.60874 60.7385 7.55361 60.2688 7.56363V10.2553L60.4337 10.3455C60.6036 10.3455 60.7535 10.3906 60.8835 10.4808C61.0134 10.571 61.0783 10.6663 61.0783 10.7665C61.0783 10.8968 61.0134 11.0071 60.8835 11.0973C60.7535 11.1876 60.6036 11.2327 60.4337 11.2327L56.4011 11.2477C56.2112 11.2377 56.0563 11.1876 55.9364 11.0973C55.8165 11.0071 55.7565 10.8968 55.7565 10.7665C55.7565 10.6663 55.8165 10.571 55.9364 10.4808C56.0563 10.3906 56.2112 10.3455 56.4011 10.3455L56.521 10.2553V1.0977C56.4811 1.07765 56.4411 1.05761 56.4011 1.03756C56.3611 1.01751 56.3162 1.00247 56.2662 0.992444C56.2562 0.98242 56.2412 0.977408 56.2212 0.977408C56.2012 0.967383 56.1812 0.962371 56.1613 0.962371C56.0513 0.922272 55.9514 0.882173 55.8614 0.842074C55.7815 0.791951 55.7415 0.696716 55.7415 0.55637C55.7415 0.436074 55.8015 0.335827 55.9214 0.255629C56.0413 0.165407 56.1912 0.120297 56.3711 0.120297H61.9478C63.1771 0.120297 64.1415 0.496223 64.8411 1.24807C65.5507 1.99993 65.9355 2.82696 65.9954 3.72919C66.0054 3.77931 66.0104 3.82943 66.0104 3.87956C66.0104 3.91966 66.0104 3.96477 66.0104 4.01489C66.0104 4.74669 65.7756 5.42336 65.3058 6.04489C64.8461 6.66642 64.1165 7.06741 63.1171 7.24785V7.35311L63.7618 7.48845C63.8217 7.49847 63.8817 7.51351 63.9417 7.53356C64.0116 7.55361 64.0816 7.57867 64.1515 7.60874C64.4913 7.72904 64.8061 7.90447 65.096 8.13504C65.3858 8.35558 65.5557 8.58615 65.6057 8.82674C65.6157 8.84679 65.6207 8.86684 65.6207 8.88689C65.6207 8.90694 65.6207 8.92699 65.6207 8.94704C65.6207 8.96709 65.6157 9.00217 65.6057 9.0523C65.6057 9.10242 65.6057 9.16257 65.6057 9.23274C65.6057 9.29289 65.6007 9.35805 65.5907 9.42822C65.5907 9.48837 65.5907 9.55353 65.5907 9.62371C65.5907 9.63373 65.5907 9.64375 65.5907 9.65378C65.5907 9.6638 65.5907 9.67383 65.5907 9.68385C65.5907 9.84425 65.6007 9.98961 65.6207 10.1199C65.6406 10.2502 65.6856 10.3254 65.7556 10.3455C65.7756 10.3555 65.7906 10.3655 65.8006 10.3756C65.8205 10.3756 65.8405 10.3756 65.8605 10.3756C66.0004 10.4257 66.1254 10.4808 66.2353 10.541C66.3452 10.6011 66.4002 10.6763 66.4002 10.7665V10.7816ZM61.663 6.09V1.69919C61.663 1.50872 61.5731 1.36837 61.3932 1.27815C61.2233 1.18793 61.0334 1.14281 60.8235 1.14281C60.6136 1.14281 60.4237 1.19294 60.2538 1.29318C60.0839 1.38341 59.999 1.51874 59.999 1.69919C59.999 1.73928 60.014 1.77437 60.044 1.80444C60.0739 1.83452 60.1089 1.86459 60.1489 1.89467C60.1489 1.89467 60.1489 1.89968 60.1489 1.9097C60.1589 1.9097 60.1639 1.9097 60.1639 1.9097C60.2139 1.93978 60.2538 1.97486 60.2838 2.01496C60.3238 2.04504 60.3438 2.08514 60.3438 2.13526V5.60882C60.3438 5.64891 60.3238 5.68901 60.2838 5.72911C60.2538 5.76921 60.2189 5.8043 60.1789 5.83437C60.1289 5.86445 60.0839 5.89953 60.044 5.93963C60.014 5.9697 59.999 6.0098 59.999 6.05993C59.999 6.2504 60.0839 6.39074 60.2538 6.48096C60.4237 6.56116 60.6086 6.60126 60.8085 6.60126C60.8185 6.60126 60.8235 6.60126 60.8235 6.60126C60.8335 6.60126 60.8435 6.60126 60.8535 6.60126C61.0534 6.59124 61.2383 6.54111 61.4082 6.45089C61.5781 6.36067 61.663 6.24037 61.663 6.09Z" fill="white"/>
</svg>
