<svg width="29" height="50" viewBox="0 0 29 50" fill="none" xmlns="http://www.w3.org/2000/svg">
<path fill-rule="evenodd" clip-rule="evenodd" d="M14.3636 49.3367L13.4335 49.3367L9.71349 49.3367C9.40348 49.3367 8.99014 49.3367 8.5768 49.2334L7.44012 49.2334C7.02678 49.2334 6.40677 49.0266 6.09677 48.51C5.78676 47.9934 5.78676 47.5801 5.78676 47.1668L5.78676 46.0301C5.78676 45.72 5.68343 45.4099 5.58009 45.0999C5.27009 44.5833 4.96008 44.48 4.44341 44.7901C4.1334 44.9966 3.8234 45.2034 3.51339 45.5132C3.20339 45.8233 2.79005 46.1333 2.17004 46.2366C1.55003 46.3399 0.826688 46.0301 0.516682 45.5132C0.103343 44.9966 8.44911e-06 44.48 8.4839e-06 43.9634C0.194911 39.5454 0.185586 35.4544 0.177473 31.8955C0.17268 29.7937 0.168312 27.8777 0.20668 26.1897L0.206681 24.6397L0.206681 23.0896C0.168313 21.4016 0.17268 19.4856 0.177474 17.3838C0.185588 13.825 0.194913 9.73392 1.10862e-05 5.31595C0.103346 4.79935 0.20668 4.28275 0.516685 3.7659C0.82669 3.2493 1.55004 2.93924 2.17004 3.04276C2.79005 3.14603 3.20339 3.45609 3.5134 3.7659C3.69446 3.90164 3.83587 4.01761 3.96368 4.12259C4.12763 4.25711 4.2692 4.37332 4.44341 4.48929C4.96008 4.90262 5.27009 4.69608 5.5801 4.17948C5.68343 3.86942 5.78677 3.55936 5.78677 3.2493L5.78677 2.11258C5.78677 1.69925 5.78676 1.28592 6.09677 0.76932C6.40677 0.149203 7.02678 0.0459314 7.44012 0.0459315C7.72461 -0.0251135 8.0091 0.00149787 8.25989 0.0251795C8.37349 0.0359217 8.48017 0.0459315 8.57681 0.0459315L9.61016 0.0459315L13.3302 0.0459316L14.2602 0.0459316L15.1902 0.0459317L18.9103 0.0459318L19.9436 0.0459318L21.0803 0.0459318C21.4937 0.0459319 22.0103 0.252719 22.4237 0.769321C22.7337 1.28592 22.7337 1.69925 22.7337 2.11258L22.7337 3.2493C22.7337 3.55936 22.7337 3.86942 22.837 4.17948C23.147 4.69608 23.457 4.90262 23.9737 4.48929C24.2837 4.38602 24.5937 4.07596 24.9037 3.7659C25.2137 3.45609 25.6271 3.14603 26.2471 3.04276C26.8671 2.93924 27.5904 3.2493 27.9004 3.7659C28.3138 4.28275 28.4171 4.79935 28.4171 5.31595C28.1658 11.0135 28.1861 16.1675 28.2028 20.3924C28.2067 21.3782 28.2104 22.3133 28.2104 23.1929C28.1071 23.7098 28.1071 24.2264 28.1071 24.743C28.2104 25.2596 28.2104 25.7764 28.2104 26.293C28.3036 28.3433 28.3338 30.73 28.3672 33.377C28.408 36.5996 28.4536 40.2085 28.6238 44.0667C28.5204 44.5833 28.4171 45.0999 28.1071 45.6167C27.7971 46.1333 27.0738 46.4434 26.4537 46.3399C25.8337 46.2366 25.4204 45.9265 25.1104 45.6167C24.9293 45.481 24.7879 45.365 24.6601 45.26C24.4962 45.1255 24.3546 45.0093 24.1804 44.8933C23.6637 44.48 23.3537 44.6866 23.0437 45.2034C22.9404 45.5132 22.837 45.8233 22.837 46.1333L22.837 47.2701C22.837 47.6834 22.837 48.0967 22.527 48.6133C22.217 49.2334 21.597 49.3367 21.1837 49.3367C20.8992 49.4077 20.6147 49.3811 20.3639 49.3575C20.2503 49.3467 20.1436 49.3367 20.047 49.3367L19.0136 49.3367L15.2936 49.3367L14.3636 49.3367ZM1.42146 29.0484C1.54419 33.2239 1.69611 38.3929 1.4467 43.9634C1.4467 44.7901 1.86004 45.3067 2.37671 45.0999C2.58338 45.0999 2.89339 44.8933 3.20339 44.6866L3.30673 44.5833C2.99672 42.7232 2.79005 34.4566 2.79005 24.5364C2.79005 14.9263 2.89339 6.866 3.20339 4.69608C3.20339 4.59281 3.10006 4.59281 3.10006 4.59281C2.79005 4.38602 2.48005 4.17948 2.27338 4.17948C1.86004 4.07596 1.4467 4.59281 1.4467 5.31595C1.69612 10.8865 1.54419 16.0555 1.42146 20.231C1.39165 21.2454 1.36356 22.201 1.34336 23.0896L1.34336 24.6397L1.34336 26.1897C1.36356 27.0784 1.39165 28.034 1.42146 29.0484ZM27.1771 23.0896C27.0738 18.6463 26.9704 12.2395 27.2804 5.41947C27.2804 4.59281 26.8671 4.07596 26.4537 4.17948C26.4153 4.19876 26.3733 4.21805 26.3284 4.23856C26.1318 4.3284 25.8794 4.44364 25.6271 4.69608L25.6263 4.69681C25.5228 4.80033 25.3166 5.00638 25.1104 5.10941C25.3171 7.07279 25.5237 15.0296 25.5237 24.6397C25.5237 34.2498 25.4204 42.3098 25.1104 44.2732C25.2316 44.3946 25.3527 44.4803 25.4531 44.5511C25.5239 44.6011 25.5843 44.6438 25.6271 44.6866C25.9371 44.8933 26.2471 45.0999 26.4537 45.0999C26.8671 45.2034 27.2804 44.6866 27.2804 43.9634C26.9704 37.0398 27.0738 30.7364 27.1771 26.1897L27.1771 24.6397L27.1771 23.0896ZM11.4702 44.17L12.7102 44.48C13.3302 44.5833 13.9502 44.6866 14.5702 44.6866C15.1902 44.6866 15.9136 44.5833 16.5336 44.48L17.7736 44.17C18.2903 44.0667 18.6003 43.8599 18.497 43.8599L18.3936 43.7566C18.3508 43.7566 18.2903 43.739 18.2194 43.7183C18.1191 43.6888 17.998 43.6534 17.8769 43.6534C17.7657 43.6255 17.6246 43.6053 17.4656 43.5823C17.0337 43.5198 16.4701 43.4385 16.0169 43.1365C15.7069 42.8267 15.3969 42.5166 15.2936 42.1033C15.0869 41.69 15.1902 41.1734 15.5002 40.7598C15.9662 40.2163 16.4906 40.0227 16.8978 39.8723C17.0324 39.8228 17.1543 39.7779 17.2569 39.7266C17.6703 39.5198 17.8769 39.1065 17.9803 38.5899C18.0836 38.0733 17.9803 37.6599 17.5669 37.3499C17.4105 37.1934 17.2392 37.0518 17.0587 36.9024C16.7624 36.6573 16.4413 36.3919 16.1203 36.0066C15.9136 35.6966 15.7069 35.3865 15.6036 34.9732C15.6036 34.5598 15.7069 34.0432 15.9136 33.7332C16.3268 33.1546 16.8723 32.9727 17.3385 32.8174C17.4552 32.7786 17.5669 32.7412 17.6703 32.6997C17.8769 32.5965 18.187 32.4932 18.187 32.4932L18.187 32.3897C18.0836 32.0799 17.8769 31.9764 17.3603 31.9764L16.6369 31.9764C16.2236 31.9764 15.8102 31.8731 15.7069 31.4598L15.7069 30.9431L15.7069 30.6331C15.7069 30.5298 15.7327 30.4263 15.7586 30.323C15.7844 30.2198 15.8102 30.1162 15.8102 30.013L15.8102 29.7032L14.8802 29.7032C14.3636 29.7032 13.8469 29.7032 13.3302 29.5996C13.4335 29.7032 13.4335 29.9097 13.4335 30.013C13.4335 30.1162 13.4594 30.2198 13.4852 30.323C13.511 30.4263 13.5369 30.5298 13.5369 30.6331L13.5369 30.9431C13.5369 31.0164 13.5498 31.0767 13.562 31.1331C13.5842 31.2359 13.6036 31.3264 13.5369 31.4598C13.4335 31.7698 13.0202 31.9764 12.6069 31.9764L11.8835 31.9764C11.4702 31.9764 11.1602 32.0799 11.0568 32.3897C10.9535 32.4932 11.0568 32.4932 11.0568 32.4932C11.0568 32.4932 11.2635 32.5965 11.5735 32.6997C11.6769 32.7412 11.7886 32.7786 11.9053 32.8174C12.3715 32.9727 12.917 33.1546 13.3302 33.7332C13.6402 34.0432 13.7436 34.5598 13.6402 34.9732C13.5369 35.3865 13.3302 35.6966 13.1235 36.0066C12.8025 36.3919 12.4814 36.6573 12.1851 36.9024C12.0046 37.0518 11.8333 37.1934 11.6769 37.3499C11.3668 37.6599 11.1602 38.0733 11.2635 38.5899C11.2635 39.1065 11.5735 39.5198 11.9869 39.7266C12.0895 39.7779 12.2114 39.8228 12.346 39.8723C12.7532 40.0227 13.2776 40.2163 13.7436 40.7598C14.0536 41.1734 14.0536 41.69 13.9502 42.1033C13.8469 42.5166 13.5369 42.93 13.2269 43.1365C12.6069 43.6534 11.7802 43.6534 11.3668 43.6534C11.0568 43.6534 10.9535 43.6534 10.8502 43.7566C10.7468 43.7566 10.7468 43.8599 10.7468 43.8599C10.7468 43.8599 11.0568 44.0667 11.4702 44.17ZM11.7775 5.90384C12.2095 5.96585 12.7735 6.04715 13.2269 6.3494C13.5369 6.55594 13.8469 6.866 13.9502 7.27933C14.0536 7.69266 14.0536 8.20951 13.9502 8.72611C13.4844 9.26956 12.9603 9.46317 12.5532 9.61331C12.4183 9.66312 12.2963 9.70804 12.1935 9.75955C11.7802 9.9661 11.5735 10.3794 11.4702 10.896C11.3668 11.4129 11.4702 11.8262 11.8835 12.1363C12.04 12.2928 12.2112 12.4344 12.3917 12.5835C12.688 12.8284 13.0091 13.094 13.3302 13.4795L13.3308 13.4803C13.5373 13.7901 13.7436 14.0999 13.8469 14.5127C13.8469 14.9263 13.7436 15.4429 13.5369 15.753C13.1234 16.3316 12.5777 16.5135 12.1113 16.669C11.9949 16.7078 11.8834 16.7449 11.7802 16.7862C11.5735 16.8894 11.2635 16.993 11.2635 16.993L11.2635 17.0962C11.3668 17.4063 11.5735 17.5096 12.0902 17.5096L12.8135 17.5096C13.2269 17.5096 13.6402 17.6128 13.7436 18.0262L13.7436 18.543L13.7436 18.8528C13.7436 18.9561 13.7177 19.0596 13.6919 19.1629C13.6661 19.2661 13.6402 19.3697 13.6402 19.4729C13.5369 19.6795 13.5369 19.783 13.5369 19.9895C14.0536 19.8863 14.5702 19.8863 15.0869 19.8863L16.0169 19.8863C15.9136 19.783 15.9136 19.5762 15.9136 19.4729C15.9136 19.3697 15.8878 19.2661 15.8619 19.1629C15.8361 19.0596 15.8102 18.9561 15.8102 18.8528L15.8102 18.543C15.8102 18.4698 15.7973 18.4095 15.7851 18.3531C15.763 18.25 15.7435 18.1597 15.8103 18.0262C15.9136 17.7163 16.3269 17.5096 16.7403 17.5096L17.4636 17.5096C17.8769 17.5096 18.187 17.4063 18.2903 17.0962C18.3936 16.993 18.2903 16.993 18.2903 16.993C18.2903 16.993 18.0836 16.8894 17.7736 16.7862C17.6704 16.7449 17.5589 16.7078 17.4425 16.669C16.9761 16.5135 16.4304 16.3316 16.0169 15.753C15.7069 15.4429 15.6036 14.9263 15.7069 14.5127C15.8102 14.0999 16.0165 13.7901 16.223 13.4803L16.2236 13.4795C16.5447 13.094 16.8658 12.8284 17.1621 12.5835C17.3426 12.4344 17.5138 12.2928 17.6703 12.1363C17.9803 11.8262 18.187 11.4129 18.0836 10.896C18.0836 10.3794 17.7736 9.9661 17.3603 9.75955C17.2575 9.70804 17.1355 9.66312 17.0007 9.61331C16.5935 9.46317 16.0694 9.26956 15.6036 8.72611C15.2936 8.31278 15.2936 7.79618 15.3969 7.38285C15.5002 6.96952 15.8103 6.55594 16.1203 6.3494C16.7403 5.8328 17.5669 5.8328 17.9803 5.8328C18.2903 5.8328 18.3936 5.8328 18.497 5.72928C18.6003 5.72928 18.6003 5.62601 18.6003 5.62601C18.6003 5.62601 18.2903 5.41947 17.8769 5.31595L16.6369 5.00614L16.3695 4.96756C15.7581 4.87845 15.2158 4.79935 14.6736 4.79935C14.0536 4.79935 13.3302 4.90262 12.7102 5.00614L11.4702 5.31595C10.9535 5.41947 10.6435 5.62601 10.7468 5.62601L10.8502 5.72928C10.893 5.72928 10.9535 5.7471 11.0244 5.76786C11.1247 5.7974 11.2458 5.8328 11.3668 5.8328C11.4779 5.86063 11.6188 5.88089 11.7775 5.90384ZM20.9534 26.0071C20.6782 26.5867 20.1559 27.0816 19.6337 27.4297C18.4481 28.22 17.168 28.5381 16.3354 28.7452L16.2236 28.773C15.8498 28.8665 15.5393 28.9178 15.3114 28.9554C15.0353 29.0008 14.8803 29.0264 14.8803 29.083C14.8803 28.9798 14.3636 28.8765 13.3302 28.773L13.2185 28.7452C12.3859 28.5381 11.1058 28.22 9.92019 27.4297C9.40351 27.0164 8.78351 26.3965 8.4735 25.6731C8.1635 24.9497 8.26683 24.0198 8.88684 23.2964C10.1269 21.7464 12.5036 21.023 14.7769 21.023C14.8114 21.0244 14.8458 21.0262 14.8802 21.0279C14.9147 21.0262 14.9491 21.0244 14.9836 21.023C17.2569 21.023 19.6336 21.7464 20.8737 23.2964C21.287 23.9163 21.4937 24.8462 21.1837 25.5696C21.1191 25.7202 21.0411 25.8662 20.9534 26.0071Z" fill="white"/>
</svg>
