<svg width="30" height="18" viewBox="0 0 30 18" fill="none" xmlns="http://www.w3.org/2000/svg">
<path fill-rule="evenodd" clip-rule="evenodd" d="M0.777917 1.88886C0.777917 0.907022 1.57386 0.111084 2.5557 0.111084H27.4446C28.4264 0.111084 29.2224 0.907022 29.2224 1.88886C29.2224 2.8707 28.4264 3.66664 27.4446 3.66664H2.55569C1.57385 3.66664 0.777917 2.8707 0.777917 1.88886ZM0.777832 8.99976C0.777832 8.01792 1.57377 7.22198 2.55561 7.22198H27.4445C28.4263 7.22198 29.2223 8.01792 29.2223 8.99976C29.2223 9.9816 28.4263 10.7775 27.4445 10.7775H2.55561C1.57377 10.7775 0.777832 9.9816 0.777832 8.99976ZM2.55561 14.3331C1.57377 14.3331 0.777832 15.129 0.777832 16.1109C0.777832 17.0927 1.57377 17.8886 2.55561 17.8886H27.4445C28.4263 17.8886 29.2223 17.0927 29.2223 16.1109C29.2223 15.129 28.4263 14.3331 27.4445 14.3331H2.55561Z" fill="white"/>
</svg>
