<svg width="15" height="18" viewBox="0 0 15 18" fill="none" xmlns="http://www.w3.org/2000/svg">
<path d="M7.65176 17.144C6.35576 17.144 5.19576 16.8 4.17176 16.112C3.16376 15.424 2.37176 14.44 1.79576 13.16C1.23576 11.864 0.955764 10.344 0.955764 8.6C0.955764 6.856 1.23576 5.344 1.79576 4.064C2.37176 2.768 3.16376 1.776 4.17176 1.088C5.19576 0.399999 6.35576 0.0559993 7.65176 0.0559993C8.94776 0.0559993 10.0998 0.399999 11.1078 1.088C12.1318 1.776 12.9318 2.768 13.5078 4.064C14.0838 5.344 14.3718 6.856 14.3718 8.6C14.3718 10.344 14.0838 11.864 13.5078 13.16C12.9318 14.44 12.1318 15.424 11.1078 16.112C10.0998 16.8 8.94776 17.144 7.65176 17.144ZM7.65176 15.56C8.62776 15.56 9.48376 15.288 10.2198 14.744C10.9718 14.2 11.5558 13.408 11.9718 12.368C12.3878 11.328 12.5958 10.072 12.5958 8.6C12.5958 7.128 12.3878 5.872 11.9718 4.832C11.5558 3.792 10.9718 3 10.2198 2.456C9.48376 1.912 8.62776 1.64 7.65176 1.64C6.67576 1.64 5.81176 1.912 5.05976 2.456C4.32376 3 3.74776 3.792 3.33176 4.832C2.91576 5.872 2.70776 7.128 2.70776 8.6C2.70776 10.072 2.91576 11.328 3.33176 12.368C3.74776 13.408 4.32376 14.2 5.05976 14.744C5.81176 15.288 6.67576 15.56 7.65176 15.56Z" fill="white"/>
</svg>
