<svg width="21" height="35" viewBox="0 0 21 35" fill="none" xmlns="http://www.w3.org/2000/svg">
<path fill-rule="evenodd" clip-rule="evenodd" d="M10.118 34.7538L9.46284 34.7538L6.84237 34.7538C6.624 34.7538 6.33283 34.7538 6.04167 34.681L5.24097 34.681C4.94981 34.681 4.51306 34.5354 4.29469 34.1715C4.07632 33.8075 4.07632 33.5163 4.07632 33.2252L4.07632 32.4245C4.07632 32.2061 4.00353 31.9877 3.93074 31.7693C3.71236 31.4054 3.49399 31.3326 3.13004 31.551C2.91166 31.6965 2.69329 31.8421 2.47492 32.0605C2.25655 32.2789 1.96539 32.4973 1.52864 32.57C1.0919 32.6428 0.582361 32.4245 0.363989 32.0605C0.0728242 31.6965 3.4086e-05 31.3326 3.4111e-05 30.9686C0.137329 27.8566 0.130758 24.9748 0.125044 22.4679C0.121668 20.9874 0.118592 19.6377 0.145617 18.4485L0.145617 17.3567L0.145617 16.2648C0.118592 15.0756 0.121669 13.7259 0.125045 12.2455C0.13076 9.73854 0.137331 6.85672 3.59822e-05 3.74471C0.0728262 3.38075 0.145618 3.0168 0.363991 2.65283C0.582363 2.28888 1.0919 2.07051 1.52864 2.1433C1.96539 2.21609 2.25655 2.43446 2.47492 2.65283C2.60255 2.74857 2.70221 2.83031 2.79229 2.90419C2.9077 2.99884 3.00739 3.08061 3.13004 3.16237C3.49399 3.45354 3.71237 3.30795 3.93074 2.944C4.00353 2.72563 4.07632 2.50725 4.07632 2.28888L4.07632 1.48817C4.07632 1.19701 4.07632 0.905853 4.29469 0.541885C4.51307 0.105148 4.94981 0.0323486 5.24097 0.0323486C5.44137 -0.017746 5.64177 0.00111387 5.81843 0.017746C5.89845 0.0252685 5.9736 0.0323486 6.04167 0.0323486L6.76958 0.0323486L9.39005 0.0323487L10.0452 0.0323487L10.7003 0.0323488L13.3208 0.0323488L14.0487 0.0323489L14.8494 0.0323489C15.1405 0.0323489 15.5045 0.177933 15.7956 0.541886C16.014 0.905854 16.014 1.19701 16.014 1.48817L16.014 2.28888C16.014 2.50725 16.014 2.72563 16.0868 2.944C16.3052 3.30795 16.5235 3.45354 16.8875 3.16237C17.1059 3.08958 17.3242 2.87122 17.5426 2.65283C17.761 2.43446 18.0522 2.2161 18.4889 2.1433C18.9256 2.07051 19.4352 2.28888 19.6536 2.65283C19.9447 3.0168 20.0175 3.38075 20.0175 3.74471C19.8404 7.75809 19.8548 11.3886 19.8666 14.3647C19.8693 15.0591 19.8719 15.7179 19.8719 16.3376C19.7991 16.7015 19.7991 17.0655 19.7991 17.4295C19.8719 17.7934 19.8719 18.1574 19.8719 18.5213C19.9376 19.9656 19.9588 21.6467 19.9824 23.5113C20.0111 25.7815 20.0432 28.3237 20.1631 31.0414C20.0903 31.4054 20.0175 31.7693 19.7991 32.1333C19.5808 32.4973 19.0712 32.7156 18.6345 32.6428C18.1977 32.57 17.9066 32.3517 17.6882 32.1333C17.5605 32.0376 17.4609 31.9558 17.3708 31.8819C17.2554 31.7873 17.1557 31.7055 17.0331 31.6238C16.6691 31.3326 16.4508 31.4782 16.2324 31.8421C16.1596 32.0605 16.0868 32.2789 16.0868 32.4973L16.0868 33.298C16.0868 33.5891 16.0868 33.8803 15.8684 34.2442C15.6501 34.681 15.2133 34.7538 14.9221 34.7538C14.7217 34.8039 14.5214 34.785 14.3447 34.7684C14.2647 34.7609 14.1895 34.7538 14.1214 34.7538L13.3935 34.7538L10.7731 34.7538L10.118 34.7538ZM1.00133 20.4622C1.08778 23.4036 1.1948 27.0448 1.01911 30.9686C1.01911 31.551 1.31027 31.9149 1.67422 31.7693C1.8198 31.7693 2.03818 31.6238 2.25655 31.4782L2.32934 31.4054C2.11097 30.0951 1.96539 24.2718 1.96539 17.2839C1.96539 10.5143 2.03818 4.83658 2.25655 3.30795C2.25655 3.23517 2.18376 3.23517 2.18376 3.23517C1.96539 3.08958 1.74702 2.944 1.60143 2.944C1.31027 2.87122 1.01911 3.23517 1.01911 3.74471C1.1948 7.66856 1.08778 11.3097 1.00133 14.2511C0.980328 14.9656 0.960542 15.6388 0.946315 16.2648L0.946315 17.3567L0.946314 18.4485C0.960541 19.0745 0.980328 19.7477 1.00133 20.4622ZM19.144 16.2648C19.0712 13.1348 18.9984 8.62172 19.2168 3.81749C19.2168 3.23517 18.9256 2.87122 18.6345 2.944C18.6074 2.95755 18.5777 2.9711 18.546 2.9856C18.4076 3.04895 18.2299 3.13025 18.0522 3.30795C17.9794 3.38075 17.8338 3.52634 17.6882 3.59912C17.8338 4.98216 17.9794 10.5871 17.9794 17.3567C17.9794 24.1263 17.9066 29.804 17.6882 31.187C17.7735 31.2723 17.8588 31.3326 17.9294 31.3825C17.9794 31.4179 18.022 31.448 18.0522 31.4782C18.2705 31.6238 18.4889 31.7693 18.6345 31.7693C18.9256 31.8421 19.2168 31.4782 19.2168 30.9686C18.9984 26.0916 19.0712 21.6514 19.144 18.4485L19.144 17.3567L19.144 16.2648ZM8.07981 31.1142L8.9533 31.3326C9.39005 31.4054 9.82679 31.4782 10.2635 31.4782C10.7003 31.4782 11.2098 31.4054 11.6466 31.3326L12.5201 31.1142C12.884 31.0414 13.1024 30.8958 13.0296 30.8958L12.9568 30.8231C12.9266 30.8231 12.884 30.8106 12.834 30.7959C12.7634 30.7752 12.6781 30.7503 12.5928 30.7503C12.5146 30.7307 12.4153 30.7164 12.3034 30.7003C11.9991 30.6564 11.602 30.5992 11.2826 30.3863C11.0642 30.1679 10.8459 29.9496 10.7731 29.6584C10.6275 29.3672 10.7003 29.0033 10.9187 28.7121C11.2468 28.3292 11.6161 28.193 11.9029 28.0871C11.9978 28.0521 12.0837 28.0204 12.1561 27.9842C12.4473 27.8386 12.5928 27.5474 12.6656 27.1835C12.7384 26.8195 12.6656 26.5284 12.3745 26.31C12.2643 26.1998 12.1436 26.1 12.0165 25.9949C11.8078 25.8222 11.5816 25.6351 11.3554 25.3637C11.2098 25.1453 11.0642 24.927 10.9914 24.6358C10.9914 24.3446 11.0642 23.9807 11.2098 23.7623C11.501 23.3547 11.8853 23.2266 12.2137 23.1171C12.2959 23.0897 12.3745 23.0635 12.4473 23.0344C12.5928 22.9616 12.8112 22.8888 12.8112 22.8888L12.8112 22.816C12.7384 22.5976 12.5928 22.5248 12.2289 22.5248L11.7194 22.5248C11.4282 22.5248 11.137 22.4521 11.0642 22.1609L11.0642 21.7969L11.0642 21.5786C11.0642 21.5058 11.0824 21.433 11.1006 21.3602C11.1188 21.2874 11.137 21.2146 11.137 21.1418L11.137 20.9234L10.4819 20.9234C10.118 20.9234 9.754 20.9234 9.39005 20.8507C9.46284 20.9234 9.46284 21.069 9.46284 21.1418C9.46284 21.2146 9.48104 21.2874 9.49923 21.3602C9.51743 21.433 9.53563 21.5058 9.53563 21.5786L9.53563 21.7969C9.53563 21.8485 9.54476 21.8909 9.55333 21.9307C9.56893 22.0032 9.58263 22.0669 9.53563 22.1609C9.46284 22.3793 9.17168 22.5248 8.88051 22.5248L8.37098 22.5248C8.07981 22.5248 7.86144 22.5976 7.78865 22.816C7.71586 22.8888 7.78865 22.8888 7.78865 22.8888C7.78865 22.8888 7.93423 22.9616 8.1526 23.0344C8.2254 23.0635 8.30401 23.0897 8.38612 23.1171C8.71455 23.2266 9.09888 23.3547 9.39005 23.7623C9.60842 23.9807 9.68121 24.3446 9.60842 24.6358C9.53563 24.927 9.39005 25.1453 9.24447 25.3637C9.01827 25.6351 8.79208 25.8222 8.58336 25.9949C8.45624 26.1 8.3356 26.1998 8.22539 26.31C8.00702 26.5284 7.86144 26.8195 7.93423 27.1835C7.93423 27.5474 8.1526 27.8386 8.44377 27.9842C8.51615 28.0204 8.60203 28.0521 8.69693 28.0871C8.98377 28.193 9.35304 28.3292 9.68121 28.7121C9.89958 29.0033 9.89958 29.3672 9.82679 29.6584C9.754 29.9496 9.53563 30.2407 9.31726 30.3863C8.88051 30.7503 8.29818 30.7503 8.00702 30.7503C7.78865 30.7503 7.71586 30.7503 7.64307 30.8231C7.57028 30.8231 7.57028 30.8958 7.57028 30.8958C7.57028 30.8958 7.78865 31.0414 8.07981 31.1142ZM8.29646 4.15865C8.60073 4.2025 8.99791 4.25972 9.31726 4.47263C9.53563 4.61819 9.754 4.83658 9.82679 5.12775C9.89958 5.4189 9.89958 5.78287 9.82679 6.14682C9.49862 6.52968 9.12936 6.66595 8.84252 6.77182C8.74761 6.80684 8.66173 6.83853 8.58935 6.87473C8.29819 7.02031 8.1526 7.31148 8.07981 7.67543C8.00702 8.03938 8.07981 8.33055 8.37098 8.54893C8.48118 8.65913 8.60181 8.75891 8.72892 8.86404C8.93765 9.03668 9.16385 9.22377 9.39005 9.49521C9.53563 9.71359 9.68121 9.93196 9.754 10.2231C9.754 10.5143 9.68121 10.8782 9.53563 11.0966C9.24447 11.5043 8.86013 11.6324 8.53169 11.7419C8.44959 11.7692 8.37097 11.7954 8.29819 11.8245C8.1526 11.8973 7.93423 11.9701 7.93423 11.9701L7.93423 12.0429C8.00702 12.2613 8.1526 12.3341 8.51656 12.3341L9.02609 12.3341C9.31726 12.3341 9.60842 12.4069 9.68121 12.698L9.68121 13.062L9.68121 13.2804C9.68121 13.3531 9.66301 13.4259 9.64482 13.4987C9.62662 13.5715 9.60842 13.6443 9.60842 13.7171C9.53563 13.8627 9.53563 13.9355 9.53563 14.0811C9.89958 14.0083 10.2635 14.0083 10.6275 14.0083L11.2826 14.0083C11.2098 13.9355 11.2098 13.7899 11.2098 13.7171C11.2098 13.6443 11.1916 13.5715 11.1734 13.4987C11.1552 13.4259 11.137 13.3531 11.137 13.2804L11.137 13.062C11.137 13.0104 11.1279 12.968 11.1193 12.9282C11.1037 12.8557 11.09 12.792 11.137 12.698C11.2098 12.4797 11.501 12.3341 11.7921 12.3341L12.3017 12.3341C12.5928 12.3341 12.8112 12.2613 12.884 12.0429C12.9568 11.9701 12.884 11.9701 12.884 11.9701C12.884 11.9701 12.7384 11.8973 12.5201 11.8245C12.4473 11.7954 12.3687 11.7692 12.2865 11.7419C11.9581 11.6324 11.5738 11.5043 11.2826 11.0966C11.0642 10.8782 10.9914 10.5143 11.0642 10.2231C11.137 9.93196 11.2826 9.71359 11.4282 9.49521C11.6544 9.22377 11.8806 9.03668 12.0893 8.86404C12.2164 8.75891 12.3371 8.65913 12.4473 8.54893C12.6656 8.33055 12.8112 8.03938 12.7384 7.67543C12.7384 7.31148 12.5201 7.02031 12.2289 6.87473C12.1565 6.83853 12.0706 6.80684 11.9757 6.77182C11.6889 6.66595 11.3196 6.52968 10.9914 6.14682C10.7731 5.85565 10.7731 5.4917 10.8459 5.20053C10.9187 4.90936 11.137 4.61819 11.3554 4.47263C11.7921 4.10866 12.3745 4.10866 12.6656 4.10866C12.884 4.10866 12.9568 4.10866 13.0296 4.03587C13.1024 4.03587 13.1024 3.96307 13.1024 3.96307C13.1024 3.96307 12.884 3.81749 12.5928 3.74471L11.7194 3.52634C11.6547 3.51711 11.5912 3.50787 11.5288 3.49878C11.099 3.43625 10.7177 3.38075 10.3363 3.38075C9.89958 3.38075 9.39005 3.45354 8.9533 3.52634L8.07981 3.74471C7.71586 3.81749 7.49749 3.96307 7.57028 3.96307L7.64307 4.03587C7.67322 4.03587 7.71586 4.04836 7.76582 4.06299C7.83646 4.08368 7.92174 4.10866 8.00702 4.10866C8.08529 4.12822 8.18459 4.14253 8.29646 4.15865ZM14.7601 18.3198C14.5662 18.7282 14.1983 19.0768 13.8304 19.3221C12.9956 19.8786 12.0943 20.1027 11.5078 20.2486C11.4806 20.2553 11.4541 20.2619 11.4283 20.2684C11.1651 20.3342 10.9465 20.3702 10.7859 20.3967C10.5913 20.4288 10.482 20.4469 10.482 20.4868C10.482 20.414 10.118 20.3412 9.39011 20.2684C9.36431 20.2619 9.33779 20.2553 9.3106 20.2486C8.72407 20.1027 7.8228 19.8786 6.98802 19.3221C6.62406 19.031 6.18732 18.5942 5.96895 18.0847C5.75057 17.5751 5.82337 16.92 6.26011 16.4105C7.1336 15.3186 8.80779 14.8091 10.4092 14.8091C10.4331 14.8101 10.457 14.8112 10.4809 14.8125C10.5055 14.8112 10.5301 14.81 10.5547 14.809C12.1561 14.809 13.8303 15.3185 14.7038 16.4104C14.9949 16.8471 15.1405 17.5023 14.9221 18.0118C14.8767 18.1178 14.8218 18.2207 14.7601 18.3198Z" fill="white"/>
</svg>
