<svg width="27" height="25" viewBox="0 0 27 25" fill="none" xmlns="http://www.w3.org/2000/svg">
<path fill-rule="evenodd" clip-rule="evenodd" d="M9.78032 4.98706C10.5205 3.60159 12.0077 2.63647 13.7605 2.63647C15.5133 2.63647 17.0004 3.60159 17.7406 4.98705L13.7605 4.98705H13.7604L9.78032 4.98706ZM20.1133 5.71694C20.0617 5.46805 19.9953 5.22445 19.915 4.98705C19.0596 2.45965 16.6274 0.636475 13.7605 0.636475C10.8936 0.636475 8.46135 2.45965 7.60599 4.98706C7.52565 5.22445 7.45922 5.46805 7.40765 5.71694H1.42869C1.10567 5.71694 0.867422 6.01866 0.942321 6.33288L5.24526 24.3846C5.29893 24.6098 5.50015 24.7687 5.73163 24.7687H21.7894C22.0209 24.7687 22.2221 24.6098 22.2758 24.3846L26.5787 6.33288C26.6536 6.01866 26.4154 5.71694 26.0923 5.71694H20.1133ZM7.27797 6.98706H2.35389L6.19813 23.1145C6.2518 23.3397 6.45302 23.4986 6.6845 23.4986H20.8365C21.068 23.4986 21.2692 23.3397 21.3229 23.1145L25.1672 6.98706H9.27797H7.27797Z" fill="white"/>
</svg>
