<svg width="95" height="29" viewBox="0 0 95 29" fill="none" xmlns="http://www.w3.org/2000/svg">
<path d="M17.5281 21.078C17.1338 23.3178 16.0319 25.1 14.2224 26.4246C12.413 27.7492 10.3368 28.3995 7.99384 28.3754C7.83145 28.3754 7.66907 28.3754 7.50669 28.3754C7.3675 28.3754 7.21671 28.3634 7.05433 28.3393C6.96154 28.3393 6.85715 28.3272 6.74116 28.3032C6.64837 28.3032 6.54398 28.2911 6.42799 28.267C5.2681 28.1466 4.15461 27.9058 3.08751 27.5445C2.02041 27.1832 1.24328 26.5571 0.75613 25.666C0.709735 25.5937 0.674938 25.4613 0.65174 25.2686C0.628542 25.0518 0.616943 24.823 0.616943 24.5822C0.616943 24.3895 0.616943 24.2089 0.616943 24.0403C0.640141 23.8717 0.663339 23.7393 0.686537 23.6429C0.802526 23.2335 1.15049 22.8963 1.73044 22.6314C2.33358 22.3665 2.97152 22.234 3.64425 22.234C3.69065 22.234 3.73705 22.234 3.78344 22.234C3.85303 22.234 3.91103 22.234 3.95742 22.234C4.83894 22.2822 5.52327 22.5471 6.01043 23.0288C6.49758 23.5105 6.85715 24.0283 7.08913 24.5822C7.15872 24.7508 7.21671 24.9194 7.26311 25.0879C7.3095 25.2565 7.3559 25.4131 7.4023 25.5576C7.47189 25.8707 7.58788 26.0995 7.75026 26.244C7.93584 26.3644 8.14462 26.4246 8.3766 26.4246C8.46939 26.4246 8.56218 26.4126 8.65497 26.3885C8.77096 26.3644 8.87535 26.3403 8.96815 26.3162C9.36251 26.1476 9.72207 25.8586 10.0468 25.4492C10.3948 25.0398 10.5688 24.5942 10.5688 24.1126C10.5456 23.9681 10.5108 23.8356 10.4644 23.7152C10.4412 23.5707 10.4064 23.4382 10.36 23.3178C10.0584 22.5471 9.52489 21.7885 8.75937 21.0419C7.99384 20.2953 7.17032 19.5607 6.2888 18.8382C5.96403 18.5492 5.62766 18.2722 5.2797 18.0073C4.93173 17.7183 4.60696 17.4413 4.30539 17.1764C3.28469 16.3094 2.46117 15.1654 1.83483 13.7444C1.23168 12.2994 0.895317 10.8183 0.825723 9.30097C0.825723 9.22871 0.825723 9.15646 0.825723 9.08421C0.825723 8.98787 0.825723 8.90358 0.825723 8.83133C0.825723 6.61561 1.52166 4.61665 2.91352 2.83444C4.32859 1.05224 6.65997 0.161133 9.90766 0.161133C10.2788 0.161133 10.6732 0.197259 11.0907 0.269511C11.5315 0.317678 11.9723 0.401971 12.413 0.522391C13.5497 0.835481 14.5936 1.30512 15.5447 1.9313C16.4958 2.55748 16.9714 3.24387 16.9714 3.99047C16.9714 4.56848 16.6698 5.03812 16.0667 5.39938C15.4635 5.76064 14.8024 5.95331 14.0833 5.97739C14.0601 5.97739 14.0253 5.97739 13.9789 5.97739C13.9557 5.97739 13.9325 5.97739 13.9093 5.97739C13.4221 5.97739 12.9698 5.8931 12.5522 5.72451C12.1346 5.55592 11.8099 5.27896 11.5779 4.89361C11.5083 4.7732 11.4503 4.65278 11.4039 4.53236C11.3575 4.38785 11.3227 4.25539 11.2995 4.13497C11.2995 4.08681 11.2879 4.05068 11.2647 4.0266C11.2647 3.97843 11.2531 3.93026 11.2299 3.88209C11.2067 3.71351 11.1719 3.55696 11.1255 3.41246C11.0791 3.24387 11.0096 3.09937 10.9168 2.97895C10.7544 2.78628 10.534 2.64177 10.2556 2.54544C10.0004 2.4491 9.72207 2.40093 9.4205 2.40093C9.39731 2.40093 9.37411 2.40093 9.35091 2.40093C9.35091 2.40093 9.33931 2.40093 9.31611 2.40093C8.66657 2.42502 8.10983 2.65382 7.64587 3.08733C7.20511 3.49675 7.23991 3.96639 7.75026 4.49623C7.79666 4.5444 7.84305 4.59257 7.88945 4.64074C7.93584 4.6889 7.99384 4.73707 8.06343 4.78524C8.94495 5.67634 9.81486 6.53132 10.6732 7.35017C11.5315 8.14494 12.3434 8.92767 13.1089 9.69835C14.4312 11.0952 15.5215 12.5282 16.3798 13.9973C17.2614 15.4424 17.7021 17.1162 17.7021 19.0188C17.7021 19.3319 17.6905 19.6691 17.6673 20.0303C17.6441 20.3675 17.5977 20.7167 17.5281 21.078Z" fill="white"/>
<path d="M43.7431 26.533C43.7431 26.822 43.5923 27.0628 43.2907 27.2555C42.9891 27.4723 42.6412 27.5806 42.2468 27.5806L32.8517 27.6168C32.411 27.5927 32.0514 27.4723 31.773 27.2555C31.4946 27.0628 31.3555 26.8099 31.3555 26.4969C31.3555 26.256 31.4946 26.0272 31.773 25.8105C32.0514 25.5937 32.411 25.4853 32.8517 25.4853L33.0257 25.2686V13.0581H28.5021V25.3047L28.8153 25.5215C29.2097 25.5215 29.5576 25.6298 29.8592 25.8466C30.1608 26.0633 30.3116 26.2921 30.3116 26.533C30.3116 26.8461 30.1608 27.099 29.8592 27.2916C29.5576 27.5084 29.2097 27.6168 28.8153 27.6168L19.4202 27.6529C18.9794 27.6288 18.6199 27.5084 18.3415 27.2916C18.0631 27.099 17.9239 26.8461 17.9239 26.533C17.9239 26.2921 18.0631 26.0633 18.3415 25.8466C18.6199 25.6298 18.9794 25.5215 19.4202 25.5215L19.6638 25.3047V3.26795L19.3854 3.0512C18.9678 3.0512 18.6083 2.95486 18.3067 2.76219C18.0283 2.56952 17.8891 2.31664 17.8891 2.00355C17.8891 1.71454 18.0283 1.4737 18.3067 1.28103C18.6083 1.06428 18.9678 0.955901 19.3854 0.955901H28.7805C29.1981 0.955901 29.546 1.06428 29.8244 1.28103C30.126 1.4737 30.2768 1.71454 30.2768 2.00355C30.2768 2.31664 30.126 2.56952 29.8244 2.76219C29.546 2.95486 29.1981 3.0512 28.7805 3.0512L28.5021 3.26795V11.2518H33.0257V3.23183L32.7473 3.0512C32.3762 3.0512 32.0398 2.95486 31.7382 2.76219C31.4366 2.56952 31.2859 2.31664 31.2859 2.00355C31.2859 1.69046 31.4366 1.43758 31.7382 1.24491C32.0398 1.05224 32.3762 0.955901 32.7473 0.955901H42.1424C42.5832 0.955901 42.9427 1.05224 43.2211 1.24491C43.4995 1.43758 43.6387 1.69046 43.6387 2.00355C43.6387 2.31664 43.4995 2.56952 43.2211 2.76219C42.9427 2.95486 42.5832 3.0512 42.1424 3.0512L41.8988 3.23183V25.2686L42.2468 25.4853C42.6412 25.4853 42.9891 25.5937 43.2907 25.8105C43.5923 26.0272 43.7431 26.256 43.7431 26.4969V26.533Z" fill="white"/>
<path d="M69.7843 14.2502C69.7843 18.1036 68.636 21.4031 66.3394 24.1487C64.0429 26.8942 61.2707 28.267 58.023 28.267C54.7521 28.267 51.9684 26.8942 49.6718 24.1487C47.3752 21.4031 46.227 18.1036 46.227 14.2502C46.227 10.3486 47.3752 7.02504 49.6718 4.27948C51.9684 1.53391 54.7521 0.161133 58.023 0.161133C61.2707 0.161133 64.0429 1.53391 66.3394 4.27948C68.636 7.02504 69.7843 10.3486 69.7843 14.2502ZM60.3544 24.5099C60.3544 24.3895 60.308 24.2932 60.2152 24.2209C60.1456 24.1246 60.0644 24.0403 59.9716 23.9681C59.8557 23.8958 59.7513 23.8115 59.6585 23.7152C59.5889 23.6188 59.5541 23.5225 59.5541 23.4262V4.09885C59.5541 3.64125 59.3453 3.30408 58.9277 3.08733C58.5334 2.87057 58.081 2.76219 57.5707 2.76219C57.5475 2.76219 57.5243 2.76219 57.5011 2.76219C57.5011 2.76219 57.4895 2.76219 57.4663 2.76219C57.0255 2.78628 56.608 2.9067 56.2136 3.12345C55.8424 3.34021 55.6569 3.66534 55.6569 4.09885C55.6569 4.14702 55.6685 4.20723 55.6917 4.27948C55.7149 4.32764 55.7496 4.37581 55.796 4.42398C55.8192 4.47215 55.854 4.53236 55.9004 4.60461C55.97 4.65278 56.028 4.70094 56.0744 4.74911C56.1904 4.84545 56.2832 4.92974 56.3528 5.00199C56.4456 5.07425 56.492 5.11037 56.492 5.11037V24.5461C56.492 24.9314 56.6892 25.2325 57.0835 25.4492C57.4779 25.6419 57.907 25.7503 58.371 25.7743C58.3942 25.7743 58.4058 25.7743 58.4058 25.7743C58.429 25.7743 58.4522 25.7743 58.4754 25.7743C58.9625 25.7743 59.3917 25.678 59.7629 25.4853C60.1572 25.2686 60.3544 24.9434 60.3544 24.5099Z" fill="white"/>
<path d="M94.6666 9.87898C94.6666 12.3115 93.7387 14.4067 91.8829 16.1649C90.0271 17.923 87.8001 18.8021 85.202 18.8021H81.3047V25.2686L81.6875 25.4853C82.0818 25.4853 82.4298 25.5937 82.7314 25.8105C83.033 26.0272 83.1837 26.256 83.1837 26.4969C83.1837 26.8099 83.033 27.0749 82.7314 27.2916C82.4298 27.5084 82.0818 27.6168 81.6875 27.6168L72.2924 27.6529C71.8516 27.6288 71.4921 27.5084 71.2137 27.2916C70.9585 27.0749 70.8309 26.8099 70.8309 26.4969C70.8309 26.256 70.9585 26.0272 71.2137 25.8105C71.4921 25.5937 71.8516 25.4853 72.2924 25.4853L72.6056 25.2686V3.26795L72.2576 3.0512C71.84 3.0512 71.4805 2.95486 71.1789 2.76219C70.9005 2.54544 70.7613 2.28052 70.7613 1.96742C70.7613 1.67842 70.9005 1.42554 71.1789 1.20878C71.4805 0.992026 71.84 0.883649 72.2576 0.883649H85.2367C87.8349 0.883649 90.0503 1.76271 91.8829 3.52083C93.7387 5.27896 94.6666 7.39834 94.6666 9.87898ZM84.5408 15.2617V4.67686C84.5408 4.21927 84.332 3.88209 83.9145 3.66534C83.5201 3.44858 83.0794 3.34021 82.5922 3.34021C82.105 3.34021 81.6643 3.46062 81.2699 3.70146C80.8756 3.91822 80.6784 4.24335 80.6784 4.67686C80.6784 4.7732 80.7132 4.85749 80.7828 4.92974C80.8524 5.00199 80.9336 5.07424 81.0264 5.1465C81.0495 5.1465 81.0611 5.1465 81.0611 5.1465C81.0611 5.1465 81.0727 5.15854 81.0959 5.18262C81.1887 5.25487 81.2699 5.32713 81.3395 5.39938C81.4323 5.47163 81.4787 5.56796 81.4787 5.68838V14.1057C81.4787 14.202 81.4323 14.2984 81.3395 14.3947C81.2699 14.491 81.1887 14.5753 81.0959 14.6476C80.98 14.7198 80.8756 14.8041 80.7828 14.9005C80.7132 14.9727 80.6784 15.0691 80.6784 15.1895C80.6784 15.6471 80.8756 15.9842 81.2699 16.201C81.6643 16.3937 82.0934 16.49 82.5574 16.49C82.5806 16.49 82.5922 16.49 82.5922 16.49C82.6154 16.49 82.6386 16.49 82.6618 16.49C83.1258 16.4659 83.5549 16.3455 83.9493 16.1287C84.3436 15.912 84.5408 15.623 84.5408 15.2617Z" fill="white"/>
</svg>
