<svg width="67" height="21" viewBox="0 0 67 21" fill="none" xmlns="http://www.w3.org/2000/svg">
<path d="M12.2282 15.6404C11.9504 17.2182 11.1742 18.4736 9.89961 19.4067C8.62502 20.3397 7.16251 20.7978 5.51208 20.7808C5.39769 20.7808 5.28331 20.7808 5.16892 20.7808C5.07088 20.7808 4.96466 20.7724 4.85027 20.7554C4.78491 20.7554 4.71138 20.7469 4.62967 20.7299C4.56431 20.7299 4.49077 20.7215 4.40907 20.7045C3.59202 20.6197 2.80766 20.45 2.05598 20.1955C1.3043 19.9411 0.756878 19.5 0.413719 18.8723C0.381037 18.8214 0.356526 18.7281 0.340185 18.5923C0.323844 18.4397 0.315674 18.2785 0.315674 18.1088C0.315674 17.9731 0.315674 17.8459 0.315674 17.7271C0.332015 17.6084 0.348356 17.5151 0.364696 17.4472C0.446401 17.1588 0.691514 16.9213 1.10004 16.7347C1.5249 16.5481 1.97428 16.4547 2.44816 16.4547C2.48084 16.4547 2.51352 16.4547 2.54621 16.4547C2.59523 16.4547 2.63608 16.4547 2.66876 16.4547C3.28972 16.4887 3.77177 16.6753 4.11493 17.0146C4.45809 17.3539 4.71138 17.7186 4.87478 18.1088C4.92381 18.2276 4.96466 18.3463 4.99734 18.4651C5.03002 18.5839 5.0627 18.6941 5.09539 18.7959C5.14441 19.0165 5.22611 19.1776 5.3405 19.2794C5.47123 19.3643 5.61829 19.4067 5.7817 19.4067C5.84707 19.4067 5.91243 19.3982 5.97779 19.3812C6.0595 19.3643 6.13303 19.3473 6.1984 19.3303C6.47619 19.2116 6.72948 19.008 6.95825 18.7196C7.20336 18.4312 7.32592 18.1173 7.32592 17.778C7.30958 17.6762 7.28507 17.5829 7.25239 17.4981C7.23604 17.3963 7.21153 17.303 7.17885 17.2182C6.96642 16.6753 6.59058 16.1409 6.05133 15.615C5.51208 15.0891 4.93198 14.5716 4.31102 14.0627C4.08225 13.8591 3.84531 13.664 3.60019 13.4774C3.35508 13.2738 3.12631 13.0787 2.91388 12.8921C2.19488 12.2813 1.61478 11.4755 1.17357 10.4746C0.748708 9.45665 0.511765 8.4133 0.462742 7.3445C0.462742 7.2936 0.462742 7.24271 0.462742 7.19181C0.462742 7.12395 0.462742 7.06457 0.462742 7.01368C0.462742 5.45289 0.952969 4.04479 1.93342 2.78937C2.93022 1.53396 4.57248 0.90625 6.8602 0.90625C7.12166 0.90625 7.39945 0.931698 7.69359 0.982593C8.00407 1.01652 8.31454 1.0759 8.62502 1.16073C9.42572 1.38127 10.1611 1.71209 10.831 2.15318C11.501 2.59428 11.836 3.07778 11.836 3.6037C11.836 4.01086 11.6236 4.34168 11.1987 4.59615C10.7738 4.85063 10.3081 4.98635 9.80156 5.00332C9.78522 5.00332 9.76071 5.00332 9.72803 5.00332C9.71169 5.00332 9.69535 5.00332 9.67901 5.00332C9.33585 5.00332 9.0172 4.94394 8.72307 4.82518C8.42893 4.70643 8.20016 4.51133 8.03675 4.23989C7.98772 4.15506 7.94687 4.07024 7.91419 3.98541C7.88151 3.88362 7.857 3.79031 7.84066 3.70549C7.84066 3.67156 7.83249 3.64611 7.81615 3.62914C7.81615 3.59522 7.80798 3.56129 7.79163 3.52735C7.77529 3.4086 7.75078 3.29833 7.7181 3.19653C7.68542 3.07778 7.6364 2.97599 7.57103 2.89116C7.45665 2.75544 7.30141 2.65365 7.10532 2.58579C6.92557 2.51793 6.72948 2.484 6.51705 2.484C6.5007 2.484 6.48436 2.484 6.46802 2.484C6.46802 2.484 6.45985 2.484 6.44351 2.484C5.98597 2.50097 5.59378 2.66214 5.26697 2.96751C4.95649 3.25591 4.981 3.58673 5.3405 3.95996C5.37318 3.99389 5.40586 4.02782 5.43855 4.06175C5.47123 4.09568 5.51208 4.12961 5.5611 4.16355C6.18206 4.79125 6.79484 5.39351 7.39945 5.97033C8.00407 6.53017 8.576 7.08154 9.11525 7.62442C10.0467 8.6084 10.8147 9.61782 11.4193 10.6527C12.0403 11.6706 12.3507 12.8497 12.3507 14.1899C12.3507 14.4105 12.3426 14.648 12.3262 14.9024C12.3099 15.14 12.2772 15.3859 12.2282 15.6404Z" fill="white"/>
<path d="M30.6944 19.483C30.6944 19.6866 30.5882 19.8562 30.3758 19.992C30.1633 20.1446 29.9182 20.221 29.6404 20.221L23.0224 20.2464C22.7119 20.2295 22.4586 20.1446 22.2625 19.992C22.0664 19.8562 21.9684 19.6781 21.9684 19.4576C21.9684 19.2879 22.0664 19.1267 22.2625 18.9741C22.4586 18.8214 22.7119 18.745 23.0224 18.745L23.1449 18.5923V9.99105H19.9585V18.6178L20.1791 18.7705C20.4569 18.7705 20.702 18.8468 20.9144 18.9995C21.1268 19.1522 21.233 19.3134 21.233 19.483C21.233 19.7036 21.1268 19.8817 20.9144 20.0174C20.702 20.1701 20.4569 20.2464 20.1791 20.2464L13.561 20.2719C13.2505 20.2549 12.9972 20.1701 12.8011 20.0174C12.605 19.8817 12.507 19.7036 12.507 19.483C12.507 19.3134 12.605 19.1522 12.8011 18.9995C12.9972 18.8468 13.2505 18.7705 13.561 18.7705L13.7326 18.6178V3.09475L13.5365 2.94206C13.2423 2.94206 12.9891 2.8742 12.7766 2.73848C12.5805 2.60276 12.4825 2.42462 12.4825 2.20408C12.4825 2.0005 12.5805 1.83085 12.7766 1.69513C12.9891 1.54244 13.2423 1.4661 13.5365 1.4661H20.1545C20.4487 1.4661 20.6938 1.54244 20.8899 1.69513C21.1023 1.83085 21.2085 2.0005 21.2085 2.20408C21.2085 2.42462 21.1023 2.60276 20.8899 2.73848C20.6938 2.8742 20.4487 2.94206 20.1545 2.94206L19.9585 3.09475V8.71867H23.1449V3.0693L22.9488 2.94206C22.6874 2.94206 22.4504 2.8742 22.238 2.73848C22.0256 2.60276 21.9194 2.42462 21.9194 2.20408C21.9194 1.98353 22.0256 1.8054 22.238 1.66968C22.4504 1.53396 22.6874 1.4661 22.9488 1.4661H29.5669C29.8774 1.4661 30.1307 1.53396 30.3268 1.66968C30.5228 1.8054 30.6209 1.98353 30.6209 2.20408C30.6209 2.42462 30.5228 2.60276 30.3268 2.73848C30.1307 2.8742 29.8774 2.94206 29.5669 2.94206L29.3953 3.0693V18.5923L29.6404 18.745C29.9182 18.745 30.1633 18.8214 30.3758 18.9741C30.5882 19.1267 30.6944 19.2879 30.6944 19.4576V19.483Z" fill="white"/>
<path d="M49.0383 10.8308C49.0383 13.5452 48.2294 15.8694 46.6117 17.8035C44.9939 19.7375 43.0412 20.7045 40.7535 20.7045C38.4494 20.7045 36.4885 19.7375 34.8707 17.8035C33.253 15.8694 32.4441 13.5452 32.4441 10.8308C32.4441 8.08248 33.253 5.7413 34.8707 3.80728C36.4885 1.87326 38.4494 0.90625 40.7535 0.90625C43.0412 0.90625 44.9939 1.87326 46.6117 3.80728C48.2294 5.7413 49.0383 8.08248 49.0383 10.8308ZM42.3957 18.0579C42.3957 17.9731 42.363 17.9053 42.2977 17.8544C42.2486 17.7865 42.1915 17.7271 42.1261 17.6762C42.0444 17.6253 41.9709 17.566 41.9055 17.4981C41.8565 17.4302 41.832 17.3624 41.832 17.2945V3.68004C41.832 3.3577 41.6849 3.12019 41.3908 2.96751C41.113 2.81482 40.7943 2.73848 40.4348 2.73848C40.4185 2.73848 40.4021 2.73848 40.3858 2.73848C40.3858 2.73848 40.3776 2.73848 40.3613 2.73848C40.0508 2.75544 39.7567 2.84027 39.4789 2.99295C39.2174 3.14564 39.0867 3.37467 39.0867 3.68004C39.0867 3.71397 39.0949 3.75638 39.1112 3.80728C39.1275 3.84121 39.1521 3.87514 39.1847 3.90907C39.2011 3.943 39.2256 3.98541 39.2583 4.03631C39.3073 4.07024 39.3481 4.10417 39.3808 4.1381C39.4625 4.20596 39.5279 4.26534 39.5769 4.31623C39.6423 4.36713 39.675 4.39257 39.675 4.39257V18.0834C39.675 18.3548 39.8139 18.5669 40.0917 18.7196C40.3694 18.8553 40.6718 18.9316 40.9986 18.9486C41.0149 18.9486 41.0231 18.9486 41.0231 18.9486C41.0394 18.9486 41.0558 18.9486 41.0721 18.9486C41.4153 18.9486 41.7176 18.8808 41.979 18.745C42.2568 18.5923 42.3957 18.3633 42.3957 18.0579Z" fill="white"/>
<path d="M66.5658 7.75166C66.5658 9.46513 65.9122 10.9411 64.6049 12.1795C63.2976 13.418 61.7289 14.0372 59.8987 14.0372H57.1535V18.5923L57.4231 18.745C57.7009 18.745 57.946 18.8214 58.1584 18.9741C58.3709 19.1267 58.4771 19.2879 58.4771 19.4576C58.4771 19.6781 58.3709 19.8647 58.1584 20.0174C57.946 20.1701 57.7009 20.2464 57.4231 20.2464L50.805 20.2719C50.4945 20.2549 50.2413 20.1701 50.0452 20.0174C49.8654 19.8647 49.7755 19.6781 49.7755 19.4576C49.7755 19.2879 49.8654 19.1267 50.0452 18.9741C50.2413 18.8214 50.4945 18.745 50.805 18.745L51.0256 18.5923V3.09475L50.7805 2.94206C50.4864 2.94206 50.2331 2.8742 50.0207 2.73848C49.8246 2.58579 49.7265 2.39918 49.7265 2.17863C49.7265 1.97505 49.8246 1.79692 50.0207 1.64423C50.2331 1.49154 50.4864 1.4152 50.7805 1.4152H59.9232C61.7534 1.4152 63.314 2.03443 64.6049 3.27288C65.9122 4.51133 66.5658 6.00426 66.5658 7.75166ZM59.433 11.5434V4.0872C59.433 3.76487 59.2859 3.52735 58.9918 3.37467C58.714 3.22198 58.4035 3.14564 58.0604 3.14564C57.7172 3.14564 57.4067 3.23047 57.129 3.40012C56.8512 3.5528 56.7123 3.78183 56.7123 4.0872C56.7123 4.15506 56.7368 4.21444 56.7858 4.26534C56.8348 4.31623 56.892 4.36713 56.9574 4.41802C56.9737 4.41802 56.9819 4.41802 56.9819 4.41802C56.9819 4.41802 56.9901 4.4265 57.0064 4.44347C57.0718 4.49436 57.129 4.54526 57.178 4.59615C57.2433 4.64705 57.276 4.71491 57.276 4.79973V10.729C57.276 10.7969 57.2433 10.8648 57.178 10.9326C57.129 11.0005 57.0718 11.0598 57.0064 11.1107C56.9247 11.1616 56.8512 11.221 56.7858 11.2889C56.7368 11.3398 56.7123 11.4076 56.7123 11.4925C56.7123 11.8148 56.8512 12.0523 57.129 12.205C57.4067 12.3407 57.7091 12.4086 58.0359 12.4086C58.0522 12.4086 58.0604 12.4086 58.0604 12.4086C58.0767 12.4086 58.0931 12.4086 58.1094 12.4086C58.4362 12.3916 58.7385 12.3068 59.0163 12.1541C59.2941 12.0014 59.433 11.7978 59.433 11.5434Z" fill="white"/>
</svg>
